<svg xmlns="http://www.w3.org/2000/svg" xmlns:xlink="http://www.w3.org/1999/xlink" width="1024" zoomAndPan="magnify" viewBox="0 0 768 767.999994" height="1024" preserveAspectRatio="xMidYMid meet" version="1.0"><defs><clipPath id="2693ed5463"><path d="M 59 121 L 677 121 L 677 654.960938 L 59 654.960938 Z M 59 121 " clip-rule="nonzero"/></clipPath></defs><path fill="#ff2273" d="M 609.699219 239.5 L 609.261719 238.484375 L 607.386719 238.148438 C 599.90625 201.882812 570.53125 172.851562 532.519531 163.40625 C 524.460938 151.605469 514.257812 137.011719 510.816406 133.65625 C 507.695312 130.59375 499.972656 128.703125 489.980469 128.457031 C 489.292969 127.59375 488.6875 126.875 488.269531 126.464844 C 484.136719 122.429688 463.921875 120.875 445.078125 128.578125 C 426.226562 136.28125 420.929688 143.605469 419.527344 149.875 C 419.324219 150.804688 419.21875 152.242188 419.183594 153.941406 C 415.226562 158.101562 412.757812 162.507812 411.703125 167.253906 C 410.304688 173.546875 411.894531 193.582031 413.027344 205.507812 L 222.851562 263.109375 L 221.597656 263.75 C 215.257812 260.527344 208.535156 257.882812 201.507812 255.882812 C 194.214844 244.019531 185.394531 230.070312 182.277344 226.703125 C 179.300781 223.488281 171.542969 221.230469 161.730469 220.503906 C 161.078125 219.605469 160.503906 218.855469 160.105469 218.421875 C 156.179688 214.1875 136.066406 211.652344 116.867188 218.421875 C 97.652344 225.199219 92.003906 232.257812 90.308594 238.449219 C 90.058594 239.371094 89.878906 240.796875 89.765625 242.492188 C 85.609375 246.457031 82.921875 250.738281 81.636719 255.425781 C 79.917969 261.734375 80.566406 282.316406 81.113281 294.210938 C 69.949219 308.933594 62.929688 326.554688 61.625 345.628906 C 61.625 345.628906 74.472656 557.066406 78.667969 588.8125 C 83.660156 626.558594 108.40625 650.652344 146.574219 652.859375 C 148.570312 652.972656 171.730469 652.722656 180.023438 649.59375 C 203.8125 640.613281 220.058594 619.265625 226.789062 588.335938 C 237.894531 537.269531 261.726562 438.222656 269.160156 431.320312 C 276.398438 424.601562 324.402344 409.035156 356.15625 398.90625 L 367.683594 395.09375 C 380.578125 390.953125 393.460938 386.574219 404.992188 382.714844 C 423.148438 376.640625 438.835938 371.359375 444.335938 370.253906 C 447.140625 369.691406 450.632812 368.984375 454.402344 368.984375 C 464.125 368.984375 472.15625 373.882812 478.941406 383.984375 C 502.5625 419.15625 561.523438 500.945312 598.710938 500.945312 C 599.230469 500.945312 599.746094 500.925781 600.253906 500.894531 C 647.953125 497.996094 674.222656 474.722656 674.222656 435.367188 C 674.230469 391.292969 612.332031 245.679688 609.699219 239.5 Z M 609.699219 239.5 " fill-opacity="1" fill-rule="nonzero"/><g clip-path="url(#2693ed5463)"><path fill="#000000" d="M 147.996094 654.960938 C 147.234375 654.960938 146.699219 654.949219 146.457031 654.933594 C 107.875 652.699219 81.761719 628.085938 76.609375 589.085938 C 72.453125 557.628906 59.675781 347.871094 59.546875 345.757812 C 60.824219 326.839844 67.550781 308.898438 79 293.558594 C 78.351562 279.144531 77.953125 261.035156 79.632812 254.878906 C 80.941406 250.082031 83.667969 245.605469 87.75 241.554688 C 87.878906 239.972656 88.0625 238.773438 88.300781 237.902344 C 90.699219 229.136719 99.554688 222.324219 116.171875 216.460938 C 126.25 212.90625 135.511719 212.164062 141.511719 212.164062 C 151.148438 212.164062 158.859375 214.019531 161.632812 217.007812 C 161.949219 217.355469 162.367188 217.875 162.84375 218.503906 C 172.988281 219.371094 180.601562 221.828125 183.808594 225.292969 C 186.398438 228.089844 192.8125 237.785156 202.863281 254.105469 C 209.324219 255.996094 215.609375 258.453125 221.59375 261.417969 L 221.902344 261.257812 L 410.796875 204.007812 C 409.503906 190 408.339844 172.828125 409.679688 166.804688 C 410.773438 161.875 413.210938 157.382812 417.128906 153.101562 C 417.183594 151.515625 417.304688 150.3125 417.496094 149.429688 C 419.476562 140.546875 427.992188 133.3125 444.292969 126.652344 C 453.152344 123.03125 463.261719 121.035156 472.765625 121.035156 C 480.863281 121.035156 487.203125 122.507812 489.730469 124.976562 C 490.0625 125.300781 490.5 125.800781 491 126.40625 C 497.386719 126.632812 507.742188 127.71875 512.28125 132.171875 C 515.09375 134.917969 522.328125 144.8125 533.792969 161.582031 C 571.773438 171.3125 601.148438 200.496094 609.128906 236.347656 L 610.738281 236.632812 L 611.617188 238.683594 C 614.257812 244.878906 676.316406 390.886719 676.316406 435.359375 C 676.316406 475.980469 649.347656 499.988281 600.390625 502.96875 C 599.84375 503.003906 599.285156 503.019531 598.722656 503.019531 C 560.515625 503.019531 501.027344 420.582031 477.226562 385.136719 C 470.851562 375.664062 463.390625 371.058594 454.402344 371.058594 C 450.882812 371.058594 447.539062 371.726562 444.851562 372.265625 C 439.601562 373.320312 424.886719 378.246094 407.855469 383.949219 L 398.246094 387.171875 C 388.71875 390.371094 378.527344 393.792969 368.324219 397.066406 L 356.816406 400.878906 C 333.1875 408.417969 277.898438 426.054688 270.585938 432.84375 C 264.261719 438.710938 241.882812 528.773438 228.832031 588.773438 C 221.917969 620.578125 205.292969 642.28125 180.769531 651.539062 C 171.792969 654.925781 148.234375 654.960938 147.996094 654.960938 Z M 141.507812 216.324219 C 135.835938 216.324219 127.078125 217.027344 117.558594 220.386719 C 97.566406 227.4375 93.578125 234.386719 92.316406 239 C 92.179688 239.5 91.984375 240.539062 91.847656 242.632812 L 91.792969 243.441406 L 91.207031 244 C 87.308594 247.71875 84.835938 251.632812 83.652344 255.976562 C 82.449219 260.386719 82.28125 274.289062 83.199219 294.117188 L 83.230469 294.867188 L 82.773438 295.464844 C 71.535156 310.292969 64.941406 327.6875 63.703125 345.773438 C 63.835938 347.621094 76.601562 557.226562 80.734375 588.542969 C 85.683594 625.960938 109.726562 648.644531 146.695312 650.785156 C 146.902344 650.796875 147.351562 650.800781 147.996094 650.800781 C 153.945312 650.800781 172.46875 650.226562 179.296875 647.648438 C 202.4375 638.917969 218.15625 618.25 224.757812 587.894531 C 231.5625 556.613281 258.800781 438.105469 267.746094 429.800781 C 274.773438 423.277344 314.089844 410.148438 355.527344 396.925781 L 367.03125 393.117188 C 377.230469 389.84375 387.40625 386.421875 396.914062 383.226562 L 406.527344 380.003906 C 423.699219 374.261719 438.519531 369.296875 443.925781 368.210938 C 446.902344 367.617188 450.46875 366.902344 454.398438 366.902344 C 464.875 366.902344 473.46875 372.109375 480.667969 382.820312 C 504.109375 417.710938 562.515625 498.859375 598.71875 498.859375 C 599.191406 498.859375 599.660156 498.84375 600.125 498.816406 C 646.570312 495.992188 672.144531 473.457031 672.144531 435.359375 C 672.144531 391.765625 610.527344 246.761719 607.792969 240.335938 L 605.632812 239.953125 L 605.347656 238.570312 C 598.09375 203.40625 569.304688 174.695312 532.011719 165.425781 L 531.242188 165.234375 L 530.792969 164.578125 C 519.554688 148.121094 511.9375 137.667969 509.355469 135.148438 C 507.269531 133.09375 501.070312 130.8125 489.929688 130.539062 L 488.957031 130.515625 L 488.351562 129.757812 C 487.730469 128.976562 487.1875 128.324219 486.804688 127.949219 C 485.453125 126.625 480.476562 125.199219 472.757812 125.199219 C 467.5625 125.199219 457.15625 125.890625 445.859375 130.503906 C 426.253906 138.515625 422.597656 145.65625 421.554688 150.328125 C 421.445312 150.832031 421.304688 151.882812 421.261719 153.984375 L 421.242188 154.789062 L 420.683594 155.375 C 416.980469 159.273438 414.707031 163.308594 413.730469 167.707031 C 412.746094 172.121094 413.25 185.828125 415.09375 205.3125 L 415.253906 207.003906 L 223.453125 265.101562 L 221.601562 266.085938 L 220.65625 265.605469 C 214.394531 262.421875 207.757812 259.824219 200.941406 257.882812 L 200.160156 257.664062 L 199.742188 256.972656 C 189.871094 240.929688 183.125 230.683594 180.753906 228.121094 C 178.230469 225.390625 170.882812 223.269531 161.578125 222.578125 L 160.617188 222.507812 L 160.050781 221.726562 C 159.453125 220.910156 158.9375 220.226562 158.570312 219.832031 C 157 218.132812 150.480469 216.324219 141.507812 216.324219 Z M 141.507812 216.324219 " fill-opacity="1" fill-rule="nonzero"/></g><path fill="#000000" d="M 478.949219 383.980469 C 482.273438 388.929688 486.324219 394.835938 490.886719 401.269531 C 491.9375 402.753906 494.058594 399.453125 494.140625 398.5625 C 494.453125 395.054688 491.441406 391.921875 490.695312 388.644531 C 489.710938 384.328125 493.414062 381.148438 497.671875 383.132812 C 503.808594 385.976562 507.335938 392.535156 513.101562 395.890625 C 519.179688 399.429688 525.460938 398.441406 531.089844 394.421875 C 538.980469 388.785156 542.109375 379.832031 539.746094 370.414062 C 535.664062 354.140625 524.152344 342.761719 509.3125 335.519531 C 477.703125 320.105469 439.027344 320.101562 417.300781 351.074219 C 410.242188 361.132812 405.015625 372.316406 401.144531 384 C 402.421875 383.570312 403.746094 383.125 405 382.707031 C 423.15625 376.632812 438.84375 371.351562 444.34375 370.246094 C 447.144531 369.683594 450.636719 368.976562 454.40625 368.976562 C 464.128906 368.980469 472.160156 373.882812 478.949219 383.980469 Z M 478.949219 383.980469 " fill-opacity="1" fill-rule="nonzero"/><path fill="#000000" d="M 638.386719 472.222656 C 622.285156 462.085938 577.363281 444.414062 579.679688 479.257812 C 579.972656 483.691406 569.320312 478.777344 567.5625 478.191406 C 564.976562 477.332031 562.382812 476.496094 559.707031 475.964844 C 558.894531 475.804688 553.738281 476.035156 553.480469 475.792969 C 569.601562 490.640625 585.523438 500.941406 598.71875 500.941406 C 599.238281 500.941406 599.75 500.925781 600.261719 500.890625 C 622.320312 499.550781 639.738281 493.800781 652.152344 484.167969 C 647.980469 479.554688 643.433594 475.402344 638.386719 472.222656 Z M 638.386719 472.222656 " fill-opacity="1" fill-rule="nonzero"/><path fill="#000000" d="M 640.738281 497.9375 L 606.808594 502.351562 L 624.59375 469.351562 Z M 640.738281 497.9375 " fill-opacity="1" fill-rule="nonzero"/><path fill="#000000" d="M 399.597656 209.578125 C 412.601562 218.765625 428.339844 224.386719 443.992188 226.558594 C 471.625 230.386719 494.652344 223.632812 513.976562 203.167969 C 524.464844 192.058594 535.03125 180.210938 540.707031 165.820312 C 538.019531 164.921875 535.296875 164.097656 532.519531 163.40625 C 524.460938 151.605469 514.257812 137.015625 510.816406 133.660156 C 507.695312 130.59375 499.972656 128.703125 489.980469 128.460938 C 489.292969 127.59375 488.683594 126.875 488.269531 126.464844 C 484.136719 122.433594 463.921875 120.875 445.078125 128.578125 C 426.226562 136.28125 420.929688 143.605469 419.527344 149.875 C 419.324219 150.804688 419.21875 152.242188 419.183594 153.941406 C 415.226562 158.101562 412.757812 162.507812 411.703125 167.257812 C 410.304688 173.550781 411.894531 193.582031 413.027344 205.507812 Z M 399.597656 209.578125 " fill-opacity="1" fill-rule="nonzero"/><path fill="#000000" d="M 191.078125 639.382812 C 173.859375 620.019531 155.089844 597.730469 132.890625 583.933594 C 126.996094 580.269531 120.796875 576.992188 115.082031 573.042969 C 108.8125 568.699219 104.007812 567.386719 100.578125 575.210938 C 99.117188 578.539062 96.34375 587.6875 91.445312 587.6875 C 86.804688 587.6875 85.929688 577.46875 84.132812 574.921875 C 81.566406 571.296875 79.308594 574.320312 77.585938 578.757812 C 77.992188 583.007812 78.355469 586.4375 78.667969 588.816406 C 83.660156 626.5625 108.40625 650.65625 146.574219 652.863281 C 148.570312 652.976562 172.40625 652.574219 180.929688 649.191406 C 185.472656 647.386719 189.730469 645.128906 193.703125 642.441406 C 192.820312 641.429688 191.96875 640.390625 191.078125 639.382812 Z M 191.078125 639.382812 " fill-opacity="1" fill-rule="nonzero"/><path fill="#000000" d="M 168.289062 653.933594 C 173.699219 653.128906 193.707031 649.570312 193.707031 649.570312 L 172.445312 635.007812 Z M 168.289062 653.933594 " fill-opacity="1" fill-rule="nonzero"/><path fill="#000000" d="M 62.988281 367.730469 C 63.609375 369.269531 64.433594 370.609375 65.582031 371.570312 C 70.753906 375.921875 72.972656 367.277344 75 364.382812 C 75.738281 363.328125 77.296875 362.917969 78.273438 363.960938 C 85.695312 371.929688 81.308594 388.496094 94.082031 391.828125 C 111.984375 396.507812 123.746094 382.515625 129.121094 367.214844 C 137.476562 343.445312 141.628906 318.605469 153.160156 295.917969 C 163.46875 275.644531 177.542969 258.480469 193.445312 242.964844 C 188.648438 235.414062 184.28125 228.871094 182.277344 226.707031 C 179.300781 223.492188 171.542969 221.230469 161.730469 220.503906 C 161.078125 219.605469 160.503906 218.855469 160.105469 218.421875 C 156.179688 214.191406 136.066406 211.652344 116.867188 218.421875 C 97.652344 225.199219 92.003906 232.257812 90.308594 238.449219 C 90.058594 239.371094 89.878906 240.796875 89.765625 242.492188 C 85.609375 246.457031 82.921875 250.738281 81.636719 255.425781 C 79.917969 261.734375 80.566406 282.316406 81.113281 294.210938 C 69.949219 308.933594 62.929688 326.554688 61.625 345.628906 C 61.625 345.628906 62.136719 354.039062 62.988281 367.730469 Z M 62.988281 367.730469 " fill-opacity="1" fill-rule="nonzero"/><path fill="#000000" d="M 451.617188 176.277344 C 451.617188 176.277344 448.535156 148.566406 449.945312 142.207031 C 451.363281 135.84375 456.742188 128.40625 475.882812 120.585938 C 495.015625 112.765625 515.542969 114.34375 519.726562 118.441406 C 523.917969 122.539062 543.128906 151.4375 543.128906 151.4375 Z M 451.617188 176.277344 " fill-opacity="1" fill-rule="nonzero"/><path fill="#ffd33b" d="M 446.359375 207.734375 C 446.359375 207.734375 442.070312 169.160156 444.039062 160.304688 C 446.003906 151.445312 453.492188 141.09375 480.132812 130.210938 C 506.777344 119.324219 535.34375 121.519531 541.167969 127.226562 C 547.007812 132.929688 573.75 173.152344 573.75 173.152344 Z M 446.359375 207.734375 " fill-opacity="1" fill-rule="nonzero"/><path fill="#000000" d="M 444.558594 210.378906 L 444.292969 207.964844 C 444.113281 206.375 439.984375 168.945312 442.003906 159.851562 C 444.714844 147.613281 456.582031 137.585938 479.339844 128.285156 C 496.109375 121.4375 511.542969 120.414062 519.253906 120.414062 C 530.480469 120.414062 539.222656 122.40625 542.625 125.742188 C 548.546875 131.53125 574.386719 170.351562 575.476562 172 L 577.074219 174.402344 Z M 519.253906 124.570312 C 511.855469 124.570312 497.027344 125.554688 480.921875 132.136719 C 452.824219 143.613281 447.574219 153.96875 446.066406 160.753906 C 444.625 167.269531 446.894531 193.007812 448.164062 205.089844 L 570.414062 171.902344 C 560.804688 157.515625 543.957031 132.863281 539.714844 128.714844 C 537.605469 126.652344 530.46875 124.570312 519.253906 124.570312 Z M 519.253906 124.570312 " fill-opacity="1" fill-rule="nonzero"/><path fill="#000000" d="M 115.71875 266.238281 C 115.71875 266.238281 113.996094 238.410156 115.71875 232.125 C 117.4375 225.839844 123.179688 218.675781 142.683594 211.796875 C 162.175781 204.921875 182.589844 207.5 186.574219 211.796875 C 190.5625 216.097656 208.339844 245.894531 208.339844 245.894531 Z M 115.71875 266.238281 " fill-opacity="1" fill-rule="nonzero"/><path fill="#ffd33b" d="M 108.929688 297.398438 C 108.929688 297.398438 106.53125 258.664062 108.929688 249.914062 C 111.324219 241.160156 119.3125 231.191406 146.449219 221.621094 C 173.59375 212.046875 202.019531 215.636719 207.558594 221.621094 C 213.109375 227.601562 237.859375 269.085938 237.859375 269.085938 Z M 108.929688 297.398438 " fill-opacity="1" fill-rule="nonzero"/><path fill="#000000" d="M 107.003906 299.953125 L 106.851562 297.527344 C 106.753906 295.933594 104.464844 258.34375 106.921875 249.363281 C 110.234375 237.273438 122.570312 227.835938 145.765625 219.65625 C 159.890625 214.675781 172.878906 213.628906 181.28125 213.628906 C 194.476562 213.628906 205.390625 216.210938 209.089844 220.207031 C 214.726562 226.28125 238.632812 266.316406 239.648438 268.019531 L 241.125 270.496094 Z M 181.28125 217.789062 C 173.199219 217.789062 160.71875 218.792969 147.144531 223.582031 C 118.519531 233.675781 112.773438 243.753906 110.9375 250.460938 C 109.175781 256.898438 110.1875 282.71875 110.863281 294.84375 L 234.585938 267.671875 C 225.691406 252.832031 210.070312 227.386719 206.035156 223.03125 C 203.621094 220.425781 194.347656 217.789062 181.28125 217.789062 Z M 181.28125 217.789062 " fill-opacity="1" fill-rule="nonzero"/><path fill="#ffd33b" d="M 86.355469 343.367188 C 86.355469 343.367188 101.671875 554.855469 105.976562 587.402344 C 110.277344 619.949219 130.554688 646.972656 172.964844 649.425781 C 215.371094 651.886719 243.027344 627.9375 252.246094 585.558594 C 261.460938 543.1875 287.277344 433.875 295.878906 425.886719 C 304.484375 417.90625 362.257812 400.09375 396.671875 389.042969 C 431.09375 377.988281 465.503906 365.707031 474.726562 363.863281 C 483.949219 362.019531 498.855469 359.15625 511.992188 378.703125 C 525.125 398.253906 593.347656 498.910156 633.292969 496.484375 C 673.238281 494.054688 706.433594 476.859375 706.433594 432.027344 C 706.433594 387.199219 641.085938 234.011719 641.085938 234.011719 L 447.527344 199.582031 L 251.226562 258.996094 Z M 86.355469 343.367188 " fill-opacity="1" fill-rule="nonzero"/><path fill="#000000" d="M 178.832031 650.746094 C 178.828125 650.746094 178.828125 650.746094 178.824219 650.746094 C 176.867188 650.746094 174.871094 651.152344 172.839844 651.035156 C 134.097656 648.792969 108.972656 625.757812 103.910156 587.441406 C 99.652344 555.203125 84.433594 345.515625 84.28125 343.398438 L 250.28125 257.066406 L 447.40625 197.410156 L 642.566406 232.140625 L 643.007812 233.183594 C 645.683594 239.453125 708.515625 387.289062 708.515625 432.027344 C 708.515625 471.988281 681.847656 495.609375 633.425781 498.554688 C 632.910156 498.589844 632.386719 498.609375 631.863281 498.609375 C 594.105469 498.609375 534.253906 415.570312 510.269531 379.863281 C 503.375 369.609375 495.226562 364.625 485.355469 364.625 C 481.523438 364.625 477.980469 365.335938 475.136719 365.902344 C 469.550781 367.015625 453.632812 372.34375 435.195312 378.519531 C 423.492188 382.4375 410.40625 386.816406 397.320312 391.023438 L 385.617188 394.761719 C 353.371094 405.050781 304.644531 420.59375 297.296875 427.417969 C 289.753906 434.417969 265.558594 533.691406 254.277344 585.535156 C 245.066406 627.890625 218.273438 650.746094 178.832031 650.746094 Z M 88.53125 344.589844 C 89.863281 362.898438 103.96875 556.382812 108.039062 587.132812 C 112.816406 623.285156 136.527344 645.230469 173.085938 647.355469 C 213.59375 649.710938 241.023438 627.390625 250.214844 585.121094 C 250.539062 583.621094 283.328125 434.707031 294.464844 424.375 C 301.890625 417.480469 339.570312 405.09375 384.351562 390.800781 L 396.039062 387.0625 C 409.113281 382.863281 422.1875 378.492188 433.871094 374.578125 C 453.207031 368.109375 468.476562 362.996094 474.320312 361.828125 C 477.183594 361.253906 481.109375 360.46875 485.351562 360.46875 C 496.71875 360.46875 505.996094 366.054688 513.71875 377.550781 C 537.332031 412.699219 596.105469 494.453125 631.859375 494.453125 C 632.300781 494.453125 632.738281 494.4375 633.171875 494.414062 C 665.644531 492.441406 704.351562 480.011719 704.351562 432.035156 C 704.351562 390.050781 645.332031 249.382812 639.617188 235.863281 L 447.65625 201.714844 L 251.828125 260.984375 Z M 88.53125 344.589844 " fill-opacity="1" fill-rule="nonzero"/><path fill="#ffd33b" d="M 642.5625 250.304688 C 642.5625 304.257812 595.488281 348 537.40625 348 C 479.335938 348 432.257812 304.261719 432.257812 250.304688 C 432.257812 196.351562 479.335938 152.613281 537.40625 152.613281 C 595.492188 152.613281 642.5625 196.351562 642.5625 250.304688 Z M 642.5625 250.304688 " fill-opacity="1" fill-rule="nonzero"/><path fill="#000000" d="M 537.410156 350.078125 C 478.28125 350.078125 430.183594 305.320312 430.183594 250.304688 C 430.183594 195.292969 478.285156 150.535156 537.410156 150.535156 C 596.542969 150.535156 644.644531 195.292969 644.644531 250.304688 C 644.644531 305.320312 596.539062 350.078125 537.410156 350.078125 Z M 537.410156 154.695312 C 480.578125 154.695312 434.347656 197.585938 434.347656 250.304688 C 434.347656 303.027344 480.578125 345.917969 537.410156 345.917969 C 594.242188 345.917969 640.480469 303.027344 640.480469 250.304688 C 640.480469 197.585938 594.242188 154.695312 537.410156 154.695312 Z M 537.410156 154.695312 " fill-opacity="1" fill-rule="nonzero"/><path fill="#ffd33b" d="M 306.269531 347.496094 C 306.269531 403.917969 257.042969 449.65625 196.308594 449.65625 C 135.585938 449.65625 86.351562 403.917969 86.351562 347.496094 C 86.351562 291.074219 135.585938 245.335938 196.308594 245.335938 C 257.046875 245.335938 306.269531 291.074219 306.269531 347.496094 Z M 306.269531 347.496094 " fill-opacity="1" fill-rule="nonzero"/><path fill="#000000" d="M 196.3125 451.734375 C 134.535156 451.734375 84.277344 404.972656 84.277344 347.496094 C 84.277344 290.019531 134.535156 243.257812 196.3125 243.257812 C 258.09375 243.257812 308.351562 290.019531 308.351562 347.496094 C 308.351562 404.972656 258.089844 451.734375 196.3125 451.734375 Z M 196.3125 247.417969 C 136.828125 247.417969 88.441406 292.3125 88.441406 347.496094 C 88.441406 402.679688 136.828125 447.574219 196.3125 447.574219 C 255.796875 447.574219 304.191406 402.679688 304.191406 347.496094 C 304.191406 292.3125 255.796875 247.417969 196.3125 247.417969 Z M 196.3125 247.417969 " fill-opacity="1" fill-rule="nonzero"/><path fill="#ffffff" d="M 201.191406 423.78125 L 201.1875 423.78125 C 196.636719 423.78125 192.609375 420.996094 191.167969 416.683594 L 178.414062 380.875 L 134.457031 393.535156 C 128.976562 395.09375 122.960938 391.773438 121.386719 386.324219 L 110.460938 348.335938 C 109.679688 345.625 110.003906 342.78125 111.371094 340.3125 C 112.734375 337.847656 114.980469 336.0625 117.691406 335.285156 L 158.054688 323.6875 L 145.765625 289.125 C 143.910156 283.5625 146.914062 277.578125 152.433594 275.738281 L 189.972656 263.246094 C 195.414062 261.441406 201.53125 264.53125 203.328125 269.925781 L 216.472656 306.902344 L 264.335938 293.152344 C 269.804688 291.574219 275.832031 294.929688 277.398438 300.375 L 288.328125 338.367188 C 289.109375 341.078125 288.785156 343.929688 287.421875 346.394531 C 286.054688 348.859375 283.808594 350.648438 281.097656 351.425781 L 236.835938 364.144531 L 248.734375 397.601562 C 249.636719 400.316406 249.4375 403.179688 248.167969 405.695312 C 246.90625 408.214844 244.738281 410.089844 242.058594 410.980469 L 204.523438 423.351562 C 203.441406 423.71875 202.320312 423.78125 201.191406 423.78125 Z M 181.027344 375.859375 L 195.105469 415.464844 C 195.992188 418.117188 198.433594 419.890625 201.1875 419.890625 C 201.871094 419.890625 202.550781 419.765625 203.207031 419.542969 L 240.746094 407.039062 C 242.371094 406.503906 243.683594 405.363281 244.449219 403.835938 C 245.21875 402.308594 245.339844 400.578125 244.800781 398.953125 L 231.433594 361.367188 L 279.949219 347.425781 C 281.59375 346.957031 282.953125 345.871094 283.78125 344.378906 C 284.609375 342.882812 284.800781 341.15625 284.332031 339.515625 L 273.398438 301.523438 C 272.453125 298.226562 268.835938 296.199219 265.488281 297.148438 L 213.863281 311.976562 L 199.390625 271.277344 C 198.285156 267.960938 194.585938 266.082031 191.289062 267.191406 L 153.753906 279.683594 C 150.40625 280.796875 148.59375 284.421875 149.703125 287.769531 L 163.464844 326.460938 L 118.847656 339.28125 C 117.203125 339.753906 115.84375 340.835938 115.019531 342.328125 C 114.191406 343.820312 113.996094 345.546875 114.464844 347.191406 L 125.394531 385.1875 C 126.339844 388.480469 129.976562 390.515625 133.3125 389.5625 Z M 181.027344 375.859375 " fill-opacity="1" fill-rule="nonzero"/><path fill="#ffffff" d="M 540.304688 322.363281 C 535.75 322.363281 531.722656 319.460938 530.285156 315.144531 L 517.53125 279.28125 L 473.574219 291.914062 C 468.082031 293.492188 462.074219 290.128906 460.503906 284.691406 L 449.574219 246.691406 C 447.96875 241.097656 451.214844 235.242188 456.804688 233.636719 L 497.171875 222.039062 L 484.878906 187.476562 C 483.035156 181.910156 486.03125 175.921875 491.546875 174.085938 L 529.082031 161.597656 C 534.542969 159.78125 540.652344 162.886719 542.4375 168.28125 L 555.589844 205.253906 L 603.457031 191.503906 C 608.933594 189.929688 614.949219 193.285156 616.515625 198.726562 L 627.449219 236.71875 C 629.058594 242.3125 625.8125 248.167969 620.222656 249.777344 L 575.957031 262.492188 L 587.855469 295.949219 C 589.707031 301.511719 586.707031 307.496094 581.1875 309.332031 L 543.652344 321.820312 C 542.5625 322.179688 541.4375 322.363281 540.304688 322.363281 Z M 520.140625 274.203125 L 534.222656 313.789062 C 535.328125 317.109375 539.023438 318.96875 542.328125 317.875 L 579.863281 305.382812 C 583.207031 304.273438 585.027344 300.644531 583.914062 297.300781 L 570.542969 259.71875 L 619.066406 245.777344 C 622.453125 244.804688 624.414062 241.253906 623.445312 237.867188 L 612.511719 199.875 C 611.5625 196.574219 607.933594 194.539062 604.601562 195.496094 L 552.980469 210.328125 L 538.503906 169.628906 C 537.402344 166.316406 533.714844 164.433594 530.398438 165.542969 L 492.867188 178.035156 C 489.527344 179.144531 487.707031 182.773438 488.820312 186.125 L 502.578125 224.8125 L 457.957031 237.632812 C 454.570312 238.605469 452.601562 242.15625 453.574219 245.546875 L 464.507812 283.539062 C 465.457031 286.835938 469.09375 288.871094 472.429688 287.914062 Z M 520.140625 274.203125 " fill-opacity="1" fill-rule="nonzero"/><path fill="#000000" d="M 509.320312 255.046875 C 509.320312 255.734375 509.285156 256.421875 509.21875 257.105469 C 509.152344 257.792969 509.050781 258.472656 508.914062 259.148438 C 508.78125 259.824219 508.613281 260.492188 508.414062 261.152344 C 508.214844 261.808594 507.980469 262.457031 507.71875 263.09375 C 507.453125 263.730469 507.160156 264.351562 506.835938 264.960938 C 506.507812 265.566406 506.15625 266.15625 505.773438 266.730469 C 505.390625 267.304688 504.980469 267.855469 504.542969 268.386719 C 504.105469 268.921875 503.640625 269.429688 503.15625 269.917969 C 502.667969 270.40625 502.15625 270.867188 501.625 271.304688 C 501.089844 271.742188 500.539062 272.152344 499.964844 272.535156 C 499.390625 272.914062 498.800781 273.269531 498.195312 273.59375 C 497.585938 273.917969 496.964844 274.214844 496.328125 274.476562 C 495.691406 274.742188 495.042969 274.972656 494.382812 275.171875 C 493.722656 275.371094 493.054688 275.539062 492.378906 275.671875 C 491.703125 275.808594 491.019531 275.910156 490.335938 275.976562 C 489.648438 276.042969 488.960938 276.078125 488.273438 276.078125 C 487.582031 276.078125 486.894531 276.042969 486.207031 275.976562 C 485.523438 275.910156 484.839844 275.808594 484.164062 275.671875 C 483.488281 275.539062 482.820312 275.371094 482.160156 275.171875 C 481.5 274.972656 480.851562 274.742188 480.214844 274.476562 C 479.578125 274.214844 478.957031 273.917969 478.347656 273.59375 C 477.742188 273.269531 477.152344 272.914062 476.578125 272.535156 C 476.003906 272.152344 475.453125 271.742188 474.917969 271.304688 C 474.386719 270.867188 473.875 270.40625 473.386719 269.917969 C 472.902344 269.429688 472.4375 268.921875 472 268.386719 C 471.5625 267.855469 471.152344 267.304688 470.769531 266.730469 C 470.386719 266.15625 470.035156 265.566406 469.707031 264.960938 C 469.382812 264.351562 469.089844 263.730469 468.824219 263.09375 C 468.5625 262.457031 468.328125 261.808594 468.128906 261.152344 C 467.929688 260.492188 467.761719 259.824219 467.628906 259.148438 C 467.492188 258.472656 467.390625 257.792969 467.324219 257.105469 C 467.257812 256.421875 467.222656 255.734375 467.222656 255.046875 C 467.222656 254.355469 467.257812 253.667969 467.324219 252.984375 C 467.390625 252.296875 467.492188 251.617188 467.628906 250.941406 C 467.761719 250.265625 467.929688 249.597656 468.128906 248.941406 C 468.328125 248.28125 468.5625 247.632812 468.824219 246.996094 C 469.089844 246.359375 469.382812 245.738281 469.707031 245.128906 C 470.035156 244.523438 470.386719 243.933594 470.769531 243.359375 C 471.152344 242.789062 471.5625 242.234375 472 241.703125 C 472.4375 241.171875 472.902344 240.660156 473.386719 240.171875 C 473.875 239.6875 474.386719 239.222656 474.917969 238.789062 C 475.453125 238.351562 476.003906 237.941406 476.578125 237.558594 C 477.152344 237.175781 477.742188 236.820312 478.347656 236.496094 C 478.957031 236.171875 479.578125 235.878906 480.214844 235.613281 C 480.851562 235.351562 481.5 235.117188 482.160156 234.917969 C 482.820312 234.71875 483.488281 234.550781 484.164062 234.417969 C 484.839844 234.28125 485.523438 234.183594 486.207031 234.113281 C 486.894531 234.046875 487.582031 234.011719 488.273438 234.011719 C 488.960938 234.011719 489.648438 234.046875 490.335938 234.113281 C 491.019531 234.183594 491.703125 234.28125 492.378906 234.417969 C 493.054688 234.550781 493.722656 234.71875 494.382812 234.917969 C 495.042969 235.117188 495.691406 235.351562 496.328125 235.613281 C 496.964844 235.878906 497.585938 236.171875 498.195312 236.496094 C 498.800781 236.820312 499.390625 237.175781 499.964844 237.558594 C 500.539062 237.941406 501.089844 238.351562 501.625 238.789062 C 502.15625 239.222656 502.667969 239.6875 503.15625 240.171875 C 503.640625 240.660156 504.105469 241.171875 504.542969 241.703125 C 504.980469 242.234375 505.390625 242.789062 505.773438 243.359375 C 506.15625 243.933594 506.507812 244.523438 506.835938 245.128906 C 507.160156 245.738281 507.453125 246.359375 507.71875 246.996094 C 507.980469 247.632812 508.214844 248.28125 508.414062 248.941406 C 508.613281 249.597656 508.78125 250.265625 508.914062 250.941406 C 509.050781 251.617188 509.152344 252.296875 509.21875 252.984375 C 509.285156 253.667969 509.320312 254.355469 509.320312 255.046875 Z M 509.320312 255.046875 " fill-opacity="1" fill-rule="nonzero"/><path fill="#000000" d="M 488.269531 278.160156 C 475.515625 278.160156 465.140625 267.792969 465.140625 255.046875 C 465.140625 242.300781 475.515625 231.929688 488.269531 231.929688 C 501.019531 231.929688 511.398438 242.300781 511.398438 255.046875 C 511.398438 267.792969 501.019531 278.160156 488.269531 278.160156 Z M 488.269531 236.089844 C 477.808594 236.089844 469.304688 244.59375 469.304688 255.046875 C 469.304688 265.496094 477.8125 274 488.269531 274 C 498.730469 274 507.234375 265.496094 507.234375 255.046875 C 507.234375 244.59375 498.730469 236.089844 488.269531 236.089844 Z M 488.269531 236.089844 " fill-opacity="1" fill-rule="nonzero"/><path fill="#000000" d="M 542.996094 197.082031 C 542.996094 197.761719 542.964844 198.441406 542.898438 199.121094 C 542.832031 199.796875 542.730469 200.46875 542.597656 201.136719 C 542.464844 201.804688 542.300781 202.464844 542.101562 203.117188 C 541.902344 203.769531 541.675781 204.410156 541.414062 205.039062 C 541.152344 205.667969 540.863281 206.285156 540.539062 206.882812 C 540.21875 207.484375 539.867188 208.070312 539.488281 208.636719 C 539.113281 209.203125 538.707031 209.746094 538.273438 210.273438 C 537.839844 210.800781 537.382812 211.304688 536.902344 211.785156 C 536.417969 212.269531 535.914062 212.726562 535.386719 213.15625 C 534.863281 213.589844 534.316406 213.996094 533.746094 214.371094 C 533.179688 214.75 532.597656 215.101562 531.996094 215.421875 C 531.394531 215.742188 530.78125 216.035156 530.148438 216.292969 C 529.519531 216.554688 528.878906 216.785156 528.226562 216.980469 C 527.574219 217.179688 526.914062 217.34375 526.246094 217.476562 C 525.578125 217.609375 524.902344 217.710938 524.226562 217.777344 C 523.546875 217.84375 522.867188 217.878906 522.183594 217.878906 C 521.503906 217.878906 520.824219 217.84375 520.144531 217.777344 C 519.46875 217.710938 518.792969 217.609375 518.125 217.476562 C 517.457031 217.34375 516.796875 217.179688 516.144531 216.980469 C 515.492188 216.785156 514.851562 216.554688 514.21875 216.292969 C 513.589844 216.035156 512.976562 215.742188 512.375 215.421875 C 511.773438 215.101562 511.1875 214.75 510.621094 214.371094 C 510.054688 213.996094 509.507812 213.589844 508.980469 213.15625 C 508.453125 212.726562 507.949219 212.269531 507.46875 211.785156 C 506.988281 211.304688 506.53125 210.800781 506.097656 210.273438 C 505.664062 209.746094 505.257812 209.203125 504.878906 208.636719 C 504.5 208.070312 504.152344 207.484375 503.832031 206.882812 C 503.507812 206.285156 503.21875 205.667969 502.957031 205.039062 C 502.695312 204.410156 502.46875 203.769531 502.269531 203.117188 C 502.070312 202.464844 501.90625 201.804688 501.773438 201.136719 C 501.640625 200.46875 501.539062 199.796875 501.472656 199.121094 C 501.40625 198.441406 501.371094 197.761719 501.371094 197.082031 C 501.371094 196.398438 501.40625 195.722656 501.472656 195.042969 C 501.539062 194.363281 501.640625 193.691406 501.773438 193.023438 C 501.90625 192.355469 502.070312 191.695312 502.269531 191.042969 C 502.46875 190.394531 502.695312 189.753906 502.957031 189.121094 C 503.21875 188.492188 503.507812 187.878906 503.832031 187.277344 C 504.152344 186.675781 504.5 186.09375 504.878906 185.527344 C 505.257812 184.960938 505.664062 184.414062 506.097656 183.886719 C 506.53125 183.363281 506.988281 182.859375 507.46875 182.375 C 507.949219 181.894531 508.453125 181.4375 508.980469 181.003906 C 509.507812 180.574219 510.054688 180.167969 510.621094 179.789062 C 511.1875 179.410156 511.773438 179.0625 512.375 178.742188 C 512.976562 178.417969 513.589844 178.128906 514.21875 177.867188 C 514.851562 177.605469 515.492188 177.378906 516.144531 177.179688 C 516.796875 176.984375 517.457031 176.816406 518.125 176.683594 C 518.792969 176.550781 519.46875 176.453125 520.144531 176.386719 C 520.824219 176.320312 521.503906 176.285156 522.183594 176.285156 C 522.867188 176.285156 523.546875 176.320312 524.226562 176.386719 C 524.902344 176.453125 525.578125 176.550781 526.246094 176.683594 C 526.914062 176.816406 527.574219 176.984375 528.226562 177.179688 C 528.878906 177.378906 529.519531 177.605469 530.148438 177.867188 C 530.78125 178.128906 531.394531 178.417969 531.996094 178.742188 C 532.597656 179.0625 533.179688 179.410156 533.746094 179.789062 C 534.316406 180.167969 534.863281 180.574219 535.386719 181.003906 C 535.914062 181.4375 536.417969 181.894531 536.902344 182.375 C 537.382812 182.859375 537.839844 183.363281 538.273438 183.886719 C 538.707031 184.414062 539.113281 184.960938 539.488281 185.527344 C 539.867188 186.09375 540.21875 186.675781 540.539062 187.277344 C 540.863281 187.878906 541.152344 188.492188 541.414062 189.121094 C 541.675781 189.753906 541.902344 190.394531 542.101562 191.042969 C 542.300781 191.695312 542.464844 192.355469 542.597656 193.023438 C 542.730469 193.691406 542.832031 194.363281 542.898438 195.042969 C 542.964844 195.722656 542.996094 196.398438 542.996094 197.082031 Z M 542.996094 197.082031 " fill-opacity="1" fill-rule="nonzero"/><path fill="#000000" d="M 522.183594 219.957031 C 509.558594 219.957031 499.289062 209.695312 499.289062 197.082031 C 499.289062 184.464844 509.558594 174.199219 522.183594 174.199219 C 534.804688 174.199219 545.078125 184.464844 545.078125 197.082031 C 545.078125 209.695312 534.804688 219.957031 522.183594 219.957031 Z M 522.183594 178.359375 C 511.859375 178.359375 503.449219 186.757812 503.449219 197.082031 C 503.449219 207.402344 511.859375 215.796875 522.183594 215.796875 C 532.511719 215.796875 540.917969 207.402344 540.917969 197.082031 C 540.917969 186.761719 532.511719 178.359375 522.183594 178.359375 Z M 522.183594 178.359375 " fill-opacity="1" fill-rule="nonzero"/><path fill="#000000" d="M 611.058594 226.808594 C 611.058594 238.425781 601.636719 247.84375 590.003906 247.84375 C 578.382812 247.84375 568.957031 238.425781 568.957031 226.808594 C 568.957031 215.191406 578.382812 205.769531 590.003906 205.769531 C 601.636719 205.769531 611.058594 215.191406 611.058594 226.808594 Z M 611.058594 226.808594 " fill-opacity="1" fill-rule="nonzero"/><path fill="#000000" d="M 590.003906 249.921875 C 577.253906 249.921875 566.878906 239.550781 566.878906 226.808594 C 566.878906 214.0625 577.253906 203.691406 590.003906 203.691406 C 602.757812 203.691406 613.136719 214.0625 613.136719 226.808594 C 613.136719 239.554688 602.757812 249.921875 590.003906 249.921875 Z M 590.003906 207.851562 C 579.542969 207.851562 571.042969 216.355469 571.042969 226.808594 C 571.042969 237.257812 579.546875 245.761719 590.003906 245.761719 C 600.460938 245.761719 608.972656 237.257812 608.972656 226.808594 C 608.972656 216.355469 600.460938 207.851562 590.003906 207.851562 Z M 590.003906 207.851562 " fill-opacity="1" fill-rule="nonzero"/><path fill="#ff2273" d="M 586.328125 245.1875 C 586.113281 245.1875 585.898438 245.15625 585.691406 245.089844 C 585.085938 244.894531 584.605469 244.4375 584.378906 243.847656 L 581.054688 235.085938 L 573.691406 229.28125 C 573.191406 228.890625 572.90625 228.292969 572.902344 227.65625 C 572.894531 227.023438 573.1875 226.425781 573.679688 226.027344 L 580.992188 220.160156 L 584.242188 211.371094 C 584.460938 210.777344 584.941406 210.316406 585.542969 210.117188 C 586.140625 209.914062 586.804688 210.003906 587.335938 210.355469 L 595.171875 215.488281 L 604.546875 215.855469 C 605.179688 215.882812 605.769531 216.195312 606.140625 216.703125 C 606.515625 217.214844 606.636719 217.871094 606.472656 218.480469 L 604.011719 227.523438 L 606.554688 236.539062 C 606.726562 237.152344 606.613281 237.804688 606.242188 238.320312 C 605.871094 238.835938 605.285156 239.152344 604.652344 239.183594 L 595.28125 239.636719 L 587.480469 244.839844 C 587.136719 245.070312 586.730469 245.1875 586.328125 245.1875 Z M 578.324219 227.636719 L 584.085938 232.175781 C 584.382812 232.410156 584.609375 232.71875 584.75 233.070312 L 587.347656 239.929688 L 593.449219 235.855469 C 593.761719 235.644531 594.128906 235.523438 594.503906 235.503906 L 601.835938 235.152344 L 599.847656 228.097656 C 599.742188 227.734375 599.742188 227.351562 599.839844 226.988281 L 601.765625 219.914062 L 594.433594 219.625 C 594.054688 219.609375 593.691406 219.492188 593.375 219.285156 L 587.238281 215.265625 L 584.699219 222.144531 C 584.5625 222.496094 584.34375 222.808594 584.050781 223.042969 Z M 578.324219 227.636719 " fill-opacity="1" fill-rule="nonzero"/><path fill="#000000" d="M 574.082031 283.285156 C 574.082031 283.964844 574.050781 284.644531 573.984375 285.324219 C 573.917969 286 573.816406 286.675781 573.683594 287.34375 C 573.550781 288.011719 573.382812 288.671875 573.1875 289.320312 C 572.988281 289.972656 572.757812 290.613281 572.5 291.242188 C 572.238281 291.875 571.945312 292.488281 571.625 293.089844 C 571.304688 293.691406 570.953125 294.273438 570.574219 294.839844 C 570.195312 295.40625 569.789062 295.953125 569.359375 296.480469 C 568.925781 297.003906 568.46875 297.507812 567.988281 297.992188 C 567.503906 298.472656 567 298.929688 566.472656 299.363281 C 565.945312 299.792969 565.398438 300.199219 564.832031 300.578125 C 564.265625 300.957031 563.683594 301.304688 563.082031 301.625 C 562.480469 301.949219 561.863281 302.238281 561.234375 302.5 C 560.605469 302.761719 559.964844 302.988281 559.3125 303.1875 C 558.660156 303.386719 558 303.550781 557.328125 303.683594 C 556.660156 303.816406 555.988281 303.914062 555.308594 303.984375 C 554.632812 304.050781 553.949219 304.082031 553.269531 304.082031 C 552.585938 304.082031 551.90625 304.050781 551.230469 303.984375 C 550.550781 303.914062 549.878906 303.816406 549.207031 303.683594 C 548.539062 303.550781 547.878906 303.386719 547.226562 303.1875 C 546.574219 302.988281 545.933594 302.761719 545.304688 302.5 C 544.675781 302.238281 544.058594 301.949219 543.457031 301.625 C 542.855469 301.304688 542.273438 300.957031 541.707031 300.578125 C 541.140625 300.199219 540.59375 299.792969 540.066406 299.363281 C 539.539062 298.929688 539.035156 298.472656 538.550781 297.992188 C 538.070312 297.507812 537.613281 297.003906 537.179688 296.480469 C 536.746094 295.953125 536.34375 295.40625 535.964844 294.839844 C 535.585938 294.273438 535.234375 293.691406 534.914062 293.089844 C 534.59375 292.488281 534.300781 291.875 534.039062 291.242188 C 533.777344 290.613281 533.550781 289.972656 533.351562 289.320312 C 533.152344 288.671875 532.988281 288.011719 532.855469 287.34375 C 532.722656 286.675781 532.621094 286 532.554688 285.324219 C 532.488281 284.644531 532.457031 283.964844 532.457031 283.285156 C 532.457031 282.605469 532.488281 281.925781 532.554688 281.246094 C 532.621094 280.570312 532.722656 279.894531 532.855469 279.226562 C 532.988281 278.558594 533.152344 277.898438 533.351562 277.246094 C 533.550781 276.597656 533.777344 275.957031 534.039062 275.324219 C 534.300781 274.695312 534.59375 274.082031 534.914062 273.480469 C 535.234375 272.878906 535.585938 272.296875 535.964844 271.730469 C 536.34375 271.164062 536.746094 270.617188 537.179688 270.089844 C 537.613281 269.566406 538.070312 269.058594 538.550781 268.578125 C 539.035156 268.097656 539.539062 267.640625 540.066406 267.207031 C 540.59375 266.777344 541.140625 266.371094 541.707031 265.992188 C 542.273438 265.613281 542.855469 265.265625 543.457031 264.941406 C 544.058594 264.621094 544.675781 264.332031 545.304688 264.070312 C 545.933594 263.808594 546.574219 263.582031 547.226562 263.382812 C 547.878906 263.183594 548.539062 263.019531 549.207031 262.886719 C 549.878906 262.753906 550.550781 262.652344 551.230469 262.585938 C 551.90625 262.519531 552.585938 262.488281 553.269531 262.488281 C 553.949219 262.488281 554.632812 262.519531 555.308594 262.585938 C 555.988281 262.652344 556.660156 262.753906 557.328125 262.886719 C 558 263.019531 558.660156 263.183594 559.3125 263.382812 C 559.964844 263.582031 560.605469 263.808594 561.234375 264.070312 C 561.863281 264.332031 562.480469 264.621094 563.082031 264.941406 C 563.683594 265.265625 564.265625 265.613281 564.832031 265.992188 C 565.398438 266.371094 565.945312 266.777344 566.472656 267.207031 C 567 267.640625 567.503906 268.097656 567.988281 268.578125 C 568.46875 269.058594 568.925781 269.566406 569.359375 270.089844 C 569.792969 270.617188 570.195312 271.164062 570.574219 271.730469 C 570.953125 272.296875 571.304688 272.878906 571.625 273.480469 C 571.945312 274.082031 572.238281 274.695312 572.5 275.324219 C 572.757812 275.957031 572.988281 276.597656 573.1875 277.246094 C 573.382812 277.898438 573.550781 278.558594 573.683594 279.226562 C 573.816406 279.894531 573.917969 280.570312 573.984375 281.246094 C 574.050781 281.925781 574.082031 282.605469 574.082031 283.285156 Z M 574.082031 283.285156 " fill-opacity="1" fill-rule="nonzero"/><path fill="#000000" d="M 553.265625 306.160156 C 540.640625 306.160156 530.371094 295.898438 530.371094 283.285156 C 530.371094 270.667969 540.640625 260.40625 553.265625 260.40625 C 565.890625 260.40625 576.164062 270.667969 576.164062 283.285156 C 576.164062 295.898438 565.890625 306.160156 553.265625 306.160156 Z M 553.265625 264.5625 C 542.941406 264.5625 534.535156 272.960938 534.535156 283.285156 C 534.535156 293.605469 542.941406 302.003906 553.265625 302.003906 C 563.59375 302.003906 572 293.605469 572 283.285156 C 572 272.960938 563.59375 264.5625 553.265625 264.5625 Z M 553.265625 264.5625 " fill-opacity="1" fill-rule="nonzero"/><path fill="#ff2273" d="M 494.640625 272.539062 C 494.21875 272.539062 493.789062 272.410156 493.421875 272.144531 L 476.789062 260.078125 C 476.066406 259.550781 475.761719 258.621094 476.03125 257.769531 L 481.78125 239.476562 C 482.125 238.378906 483.289062 237.769531 484.386719 238.117188 C 485.484375 238.460938 486.09375 239.628906 485.75 240.726562 L 480.453125 257.589844 L 495.867188 268.777344 C 496.800781 269.453125 497.003906 270.753906 496.328125 271.683594 C 495.921875 272.242188 495.285156 272.539062 494.640625 272.539062 Z M 494.640625 272.539062 " fill-opacity="1" fill-rule="nonzero"/><path fill="#ff2273" d="M 494.640625 272.539062 C 494.46875 272.539062 494.292969 272.515625 494.121094 272.472656 C 493.007812 272.179688 492.339844 271.046875 492.632812 269.933594 L 497.4375 251.507812 L 482.628906 241.839844 C 481.664062 241.210938 481.398438 239.921875 482.023438 238.960938 C 482.65625 237.992188 483.953125 237.734375 484.90625 238.359375 L 500.964844 248.84375 C 501.714844 249.332031 502.070312 250.242188 501.84375 251.109375 L 496.660156 270.980469 C 496.414062 271.917969 495.570312 272.539062 494.640625 272.539062 Z M 494.640625 272.539062 " fill-opacity="1" fill-rule="nonzero"/><path fill="#000000" d="M 180.410156 360.957031 C 178.636719 365.175781 173.632812 369.828125 169.296875 371.296875 L 155.269531 376.035156 C 150.929688 377.503906 146.171875 375.160156 144.691406 370.828125 L 137.566406 350.011719 C 136.082031 345.683594 138.421875 340.9375 142.757812 339.472656 L 156.777344 334.734375 C 161.121094 333.269531 167.925781 333.917969 171.902344 336.179688 L 179.945312 340.746094 C 183.921875 343.003906 185.730469 348.304688 183.957031 352.523438 Z M 180.410156 360.957031 " fill-opacity="1" fill-rule="nonzero"/><path fill="#000000" d="M 215.910156 358.957031 C 220.132812 360.730469 224.785156 365.730469 226.253906 370.0625 L 231.003906 384.078125 C 232.472656 388.414062 230.125 393.167969 225.789062 394.652344 L 204.960938 401.769531 C 200.625 403.25 195.878906 400.914062 194.414062 396.582031 L 189.671875 382.566406 C 188.203125 378.234375 188.855469 371.429688 191.117188 367.453125 L 195.683594 359.421875 C 197.945312 355.441406 203.25 353.636719 207.472656 355.410156 Z M 215.910156 358.957031 " fill-opacity="1" fill-rule="nonzero"/><path fill="#000000" d="M 374.886719 349.410156 C 375.574219 351.59375 374.367188 353.976562 372.195312 354.707031 L 347.09375 363.164062 C 344.921875 363.894531 342.585938 362.707031 341.898438 360.523438 L 338.585938 350.03125 C 337.898438 347.847656 339.109375 345.464844 341.28125 344.734375 L 366.371094 336.28125 C 368.542969 335.550781 370.882812 336.738281 371.570312 338.921875 Z M 374.886719 349.410156 " fill-opacity="1" fill-rule="nonzero"/><path fill="#000000" d="M 400.707031 345.503906 C 398.816406 346.796875 396.699219 346.066406 396.015625 343.882812 L 392.703125 333.390625 C 392.019531 331.207031 393.324219 329.316406 395.605469 329.183594 L 423.140625 327.605469 C 425.425781 327.472656 425.75 328.417969 423.859375 329.710938 Z M 400.707031 345.503906 " fill-opacity="1" fill-rule="nonzero"/><path fill="#000000" d="M 213.914062 323.480469 C 215.6875 319.261719 220.6875 314.613281 225.027344 313.144531 L 239.054688 308.402344 C 243.390625 306.9375 248.152344 309.277344 249.628906 313.609375 L 256.757812 334.425781 C 258.238281 338.757812 255.902344 343.5 251.566406 344.964844 L 237.546875 349.703125 C 233.210938 351.167969 226.402344 350.519531 222.417969 348.257812 L 214.378906 343.699219 C 210.398438 341.4375 208.589844 336.136719 210.363281 331.917969 Z M 213.914062 323.480469 " fill-opacity="1" fill-rule="nonzero"/><path fill="#000000" d="M 178.410156 325.480469 C 174.191406 323.707031 169.535156 318.710938 168.066406 314.375 L 163.320312 300.359375 C 161.851562 296.023438 164.195312 291.269531 168.53125 289.789062 L 189.367188 282.667969 C 193.703125 281.1875 198.449219 283.523438 199.914062 287.859375 L 204.65625 301.867188 C 206.121094 306.199219 205.476562 313.003906 203.210938 316.980469 L 198.644531 325.015625 C 196.382812 328.992188 191.078125 330.796875 186.855469 329.027344 Z M 178.410156 325.480469 " fill-opacity="1" fill-rule="nonzero"/><path fill="#00bfc3" d="M 348.441406 372.117188 C 347.5625 372.117188 346.742188 371.554688 346.460938 370.675781 C 346.109375 369.578125 346.710938 368.410156 347.808594 368.058594 L 376.253906 358.941406 C 377.355469 358.597656 378.519531 359.195312 378.871094 360.285156 C 379.222656 361.382812 378.621094 362.550781 377.523438 362.902344 L 349.078125 372.019531 C 348.867188 372.085938 348.652344 372.117188 348.441406 372.117188 Z M 348.441406 372.117188 " fill-opacity="1" fill-rule="nonzero"/><path fill="#00bfc3" d="M 402.558594 355.480469 C 401.667969 355.480469 400.84375 354.90625 400.566406 354.011719 C 400.234375 352.914062 400.851562 351.75 401.949219 351.414062 L 429.703125 342.925781 C 430.816406 342.585938 431.96875 343.210938 432.304688 344.304688 C 432.640625 345.40625 432.023438 346.570312 430.925781 346.902344 L 403.167969 355.390625 C 402.964844 355.453125 402.757812 355.480469 402.558594 355.480469 Z M 402.558594 355.480469 " fill-opacity="1" fill-rule="nonzero"/><path fill="#00bfc3" d="M 527.058594 211.707031 C 526.796875 211.707031 526.53125 211.660156 526.273438 211.554688 C 517.609375 208.03125 508.945312 204.085938 506.527344 198.027344 C 505.59375 195.699219 505.683594 193.285156 506.777344 190.855469 C 507.953125 188.257812 509.835938 187.292969 511.210938 186.9375 C 515.808594 185.753906 521.140625 189.605469 521.734375 190.046875 C 522.652344 190.730469 522.84375 192.03125 522.160156 192.953125 C 521.476562 193.871094 520.179688 194.066406 519.25 193.382812 C 518.148438 192.570312 514.515625 190.359375 512.246094 190.964844 C 511.78125 191.085938 511.105469 191.382812 510.566406 192.570312 C 509.9375 193.964844 509.878906 195.207031 510.390625 196.484375 C 512.355469 201.40625 522.046875 205.347656 527.835938 207.703125 C 528.902344 208.132812 529.414062 209.347656 528.980469 210.410156 C 528.652344 211.21875 527.878906 211.707031 527.058594 211.707031 Z M 527.058594 211.707031 " fill-opacity="1" fill-rule="nonzero"/><path fill="#00bfc3" d="M 527.058594 211.707031 C 526.730469 211.707031 526.398438 211.632812 526.09375 211.472656 C 525.074219 210.9375 524.679688 209.679688 525.210938 208.664062 C 528.113281 203.125 532.96875 193.859375 531.289062 188.835938 C 530.855469 187.535156 530.003906 186.621094 528.621094 185.964844 C 527.433594 185.398438 526.730469 185.613281 526.296875 185.824219 C 524.34375 186.765625 522.90625 190.519531 522.519531 192.183594 C 522.261719 193.300781 521.15625 194.011719 520.019531 193.738281 C 518.902344 193.476562 518.203125 192.359375 518.464844 191.242188 C 518.632812 190.523438 520.226562 184.132812 524.492188 182.074219 C 525.769531 181.460938 527.828125 180.980469 530.414062 182.207031 C 532.820312 183.351562 534.445312 185.140625 535.242188 187.519531 C 537.308594 193.703125 533.246094 202.308594 528.90625 210.59375 C 528.53125 211.300781 527.804688 211.707031 527.058594 211.707031 Z M 527.058594 211.707031 " fill-opacity="1" fill-rule="nonzero"/><path fill="#00bfc3" d="M 550.902344 296.277344 C 550.46875 296.277344 550.039062 296.144531 549.683594 295.882812 L 539.589844 288.585938 C 538.914062 288.097656 538.597656 287.257812 538.777344 286.445312 L 541.503906 274.300781 C 541.65625 273.617188 542.144531 273.058594 542.800781 272.808594 L 555.617188 267.964844 C 556.277344 267.71875 557 267.8125 557.570312 268.222656 L 567.671875 275.519531 C 568.347656 276.007812 568.664062 276.851562 568.484375 277.660156 L 565.753906 289.808594 C 565.601562 290.488281 565.109375 291.050781 564.457031 291.296875 L 551.636719 296.144531 C 551.398438 296.234375 551.144531 296.277344 550.902344 296.277344 Z M 543.136719 286.019531 L 551.21875 291.855469 L 561.9375 287.800781 L 564.121094 278.085938 L 556.039062 272.25 L 545.316406 276.300781 Z M 543.136719 286.019531 " fill-opacity="1" fill-rule="nonzero"/><path fill="#ff2273" d="M 315.390625 284.085938 C 312.714844 284.085938 310.234375 282.347656 309.417969 279.652344 C 308.417969 276.351562 310.285156 272.871094 313.585938 271.871094 L 404.707031 244.359375 C 407.980469 243.367188 411.492188 245.222656 412.488281 248.527344 C 413.488281 251.824219 411.617188 255.308594 408.316406 256.304688 L 317.203125 283.820312 C 316.597656 284 315.992188 284.085938 315.390625 284.085938 Z M 315.390625 284.085938 " fill-opacity="1" fill-rule="nonzero"/><path fill="#00bfc3" d="M 333.703125 300.613281 C 331.023438 300.613281 328.546875 298.878906 327.730469 296.1875 C 326.726562 292.890625 328.589844 289.402344 331.886719 288.402344 L 394.578125 269.382812 C 397.851562 268.382812 401.363281 270.242188 402.367188 273.539062 C 403.367188 276.839844 401.507812 280.324219 398.207031 281.324219 L 335.519531 300.34375 C 334.914062 300.527344 334.304688 300.613281 333.703125 300.613281 Z M 333.703125 300.613281 " fill-opacity="1" fill-rule="nonzero"/><path fill="#ffffff" d="M 161.71875 629.414062 C 153.523438 629.3125 143.519531 622.96875 138.792969 619.28125 C 130.996094 613.230469 125.265625 603.351562 122.582031 593.96875 C 120.445312 586.515625 121.113281 564.515625 135.144531 569.265625 C 142.714844 571.824219 144.152344 585.378906 147.910156 591.414062 C 153.128906 599.789062 160.949219 606.277344 168.730469 612.136719 C 172.984375 615.339844 173.753906 622.144531 170.152344 626.070312 C 167.910156 628.519531 164.957031 629.445312 161.71875 629.414062 Z M 161.71875 629.414062 " fill-opacity="1" fill-rule="nonzero"/><path fill="#000000" d="M 161.882812 629.996094 L 161.695312 629.996094 C 151.410156 629.996094 139.746094 621.914062 137.511719 620.175781 C 129.957031 614.308594 123.625 604.816406 120.578125 594.167969 C 119.175781 589.273438 118.578125 577.007812 123.566406 570.394531 C 126.425781 566.597656 130.75 565.5 135.8125 567.203125 C 141.832031 569.234375 144.363281 576.507812 146.59375 582.875 C 147.601562 585.75 148.554688 588.484375 149.675781 590.292969 C 154.699219 598.347656 162.402344 604.753906 169.984375 610.46875 C 172.527344 612.378906 174.167969 615.414062 174.472656 618.777344 C 174.773438 622.042969 173.757812 624.46875 171.6875 626.726562 C 169.246094 629.390625 165.949219 629.996094 161.882812 629.996094 Z M 131.46875 570.679688 C 129.609375 570.679688 128.113281 571.46875 126.898438 573.085938 C 123.351562 577.78125 123.160156 588.421875 124.585938 593.394531 C 127.402344 603.230469 133.1875 612.328125 140.074219 617.675781 C 145.742188 622.09375 155.574219 627.398438 162.507812 627.398438 L 163.40625 627.398438 C 163.40625 627.398438 167.738281 626.5 169.378906 624.703125 C 170.660156 623.304688 170.902344 621.28125 170.710938 619.175781 C 170.507812 616.984375 169.28125 615.019531 167.675781 613.808594 C 159.769531 607.855469 151.621094 601.152344 146.238281 592.515625 C 144.871094 590.320312 143.796875 587.394531 142.714844 584.292969 C 140.796875 578.824219 138.601562 572.621094 134.503906 571.238281 C 133.410156 570.871094 132.375 570.679688 131.46875 570.679688 Z M 131.46875 570.679688 " fill-opacity="1" fill-rule="nonzero"/><path fill="#ffffff" d="M 682.09375 402.3125 C 687.183594 408.765625 688.554688 420.539062 688.660156 426.539062 C 688.863281 436.410156 684.777344 447.078125 679.160156 455.050781 C 674.699219 461.390625 657.121094 474.671875 651.972656 460.757812 C 649.191406 453.253906 658.847656 443.628906 661.1875 436.914062 C 664.417969 427.59375 664.546875 417.429688 664.203125 407.6875 C 664.011719 402.363281 668.828125 397.492188 674.171875 397.835938 C 677.484375 398.042969 680.074219 399.765625 682.09375 402.3125 Z M 682.09375 402.3125 " fill-opacity="1" fill-rule="nonzero"/><path fill="#000000" d="M 659.902344 468.957031 C 656.652344 468.957031 652.308594 467.65625 650.019531 461.476562 C 647.808594 455.503906 651.839844 449.007812 655.398438 443.269531 C 657.003906 440.683594 658.519531 438.234375 659.21875 436.230469 C 662.328125 427.246094 662.449219 417.234375 662.117188 407.757812 C 662.011719 404.722656 663.230469 401.652344 665.464844 399.332031 C 667.839844 396.875 671.105469 395.539062 674.300781 395.757812 C 677.964844 395.984375 681.140625 397.753906 683.726562 401.019531 C 690.121094 409.125 690.695312 423.667969 690.742188 426.5 C 690.9375 436.058594 687.25 447.183594 680.867188 456.246094 C 677.84375 460.542969 668.289062 468.957031 659.902344 468.957031 Z M 673.984375 401.734375 C 671.742188 401.734375 669.882812 401.667969 668.464844 403.132812 C 667.007812 404.644531 666.210938 406.152344 666.277344 408.070312 C 666.625 417.953125 666.484375 428.199219 663.148438 437.828125 C 662.296875 440.273438 660.664062 442.785156 658.933594 445.574219 C 655.878906 450.503906 652.414062 456.027344 653.921875 460.085938 C 655.125 463.335938 657.023438 464.824219 659.898438 464.824219 C 665.820312 464.824219 674.386719 458.222656 677.453125 453.867188 C 683.34375 445.503906 686.753906 435.300781 686.574219 426.585938 C 686.445312 419.398438 684.765625 409.984375 680.453125 404.511719 C 678.605469 402.183594 676.503906 401.730469 674.035156 401.730469 C 674.015625 401.734375 674.003906 401.734375 673.984375 401.734375 Z M 673.984375 401.734375 " fill-opacity="1" fill-rule="nonzero"/></svg>