<svg xmlns="http://www.w3.org/2000/svg" xmlns:xlink="http://www.w3.org/1999/xlink" width="1024" zoomAndPan="magnify" viewBox="0 0 768 767.999994" height="1024" preserveAspectRatio="xMidYMid meet" version="1.0"><defs><clipPath id="eff0924538"><path d="M 114.308594 301 L 653.558594 301 L 653.558594 667.488281 L 114.308594 667.488281 Z M 114.308594 301 " clip-rule="nonzero"/></clipPath><clipPath id="a1c51912fd"><path d="M 258 100.488281 L 510 100.488281 L 510 440 L 258 440 Z M 258 100.488281 " clip-rule="nonzero"/></clipPath></defs><g clip-path="url(#eff0924538)"><path fill="#a04b86" d="M 383.925781 667.402344 C 380.960938 667.402344 379.457031 665.675781 377.285156 663.882812 C 308.992188 607.613281 124.015625 640.878906 122.132812 641.226562 C 118.0625 641.964844 114.304688 638.816406 114.304688 634.6875 L 114.304688 307.65625 C 114.304688 303.992188 117.28125 301.015625 120.945312 301.015625 C 296.265625 301.015625 471.582031 301.015625 646.902344 301.015625 C 650.570312 301.015625 653.542969 303.992188 653.542969 307.65625 L 653.542969 634.691406 C 653.542969 638.839844 649.765625 641.96875 645.710938 641.230469 C 644.703125 641.046875 456.816406 607.960938 389.851562 664.472656 C 387.945312 666.082031 386.585938 667.40625 383.925781 667.40625 Z M 383.925781 667.402344 " fill-opacity="1" fill-rule="evenodd"/></g><path fill="#ffd08c" d="M 383.925781 617.941406 C 382.632812 617.941406 381.34375 617.5625 380.222656 616.8125 C 306.691406 567.394531 167.683594 576.125 166.304688 576.207031 C 162.46875 576.417969 159.214844 573.445312 159.214844 569.578125 L 159.214844 244.191406 C 159.214844 240.585938 162.082031 237.644531 165.679688 237.554688 C 200.335938 236.652344 234.644531 238.902344 267.589844 244.261719 C 276.203125 245.660156 431.070312 255.527344 500.261719 244.246094 C 533.210938 238.886719 567.460938 236.628906 602.171875 237.539062 C 605.769531 237.636719 608.636719 240.578125 608.636719 244.171875 L 608.636719 569.5625 C 608.636719 573.425781 605.378906 576.402344 601.546875 576.195312 C 600.160156 576.109375 461.105469 567.417969 387.625 616.796875 C 386.515625 617.554688 385.222656 617.9375 383.929688 617.9375 Z M 383.925781 617.941406 " fill-opacity="1" fill-rule="evenodd"/><path fill="#ffa871" d="M 383.925781 582.125 C 380.261719 582.125 377.285156 579.148438 377.285156 575.484375 L 377.285156 498.640625 C 377.285156 489.894531 390.566406 489.898438 390.566406 498.640625 L 390.566406 575.484375 C 390.566406 579.148438 387.59375 582.125 383.925781 582.125 Z M 383.925781 582.125 " fill-opacity="1" fill-rule="evenodd"/><path fill="#ffa871" d="M 544.246094 446.625 L 471.953125 446.625 C 463.207031 446.625 463.210938 433.339844 471.953125 433.339844 L 544.246094 433.339844 C 552.988281 433.339844 552.988281 446.625 544.246094 446.625 Z M 544.246094 446.625 " fill-opacity="1" fill-rule="evenodd"/><path fill="#ffa871" d="M 544.246094 341.796875 L 486.417969 341.796875 C 477.671875 341.796875 477.675781 328.511719 486.417969 328.511719 L 544.246094 328.511719 C 552.988281 328.511719 552.988281 341.796875 544.246094 341.796875 Z M 544.246094 341.796875 " fill-opacity="1" fill-rule="evenodd"/><path fill="#ffa871" d="M 295.902344 446.625 L 223.613281 446.625 C 214.871094 446.625 214.871094 433.339844 223.613281 433.339844 L 295.902344 433.339844 C 304.644531 433.339844 304.648438 446.625 295.902344 446.625 Z M 295.902344 446.625 " fill-opacity="1" fill-rule="evenodd"/><path fill="#ffa871" d="M 281.441406 394.21875 L 223.613281 394.21875 C 214.871094 394.21875 214.867188 380.933594 223.613281 380.933594 L 281.441406 380.933594 C 290.1875 380.933594 290.1875 394.21875 281.441406 394.21875 Z M 281.441406 394.21875 " fill-opacity="1" fill-rule="evenodd"/><path fill="#ffa871" d="M 281.441406 341.796875 L 223.613281 341.796875 C 214.867188 341.796875 214.867188 328.511719 223.613281 328.511719 L 281.441406 328.511719 C 290.183594 328.511719 290.1875 341.796875 281.441406 341.796875 Z M 281.441406 341.796875 " fill-opacity="1" fill-rule="evenodd"/><path fill="#ffa871" d="M 544.246094 533.746094 L 441.457031 533.746094 C 432.714844 533.746094 432.71875 520.460938 441.457031 520.460938 L 544.246094 520.460938 C 552.988281 520.460938 552.988281 533.746094 544.246094 533.746094 Z M 544.246094 533.746094 " fill-opacity="1" fill-rule="evenodd"/><path fill="#ffa871" d="M 326.402344 491.015625 L 223.613281 491.015625 C 214.871094 491.015625 214.871094 477.730469 223.613281 477.730469 L 326.402344 477.730469 C 335.144531 477.730469 335.144531 491.015625 326.402344 491.015625 Z M 326.402344 491.015625 " fill-opacity="1" fill-rule="evenodd"/><path fill="#ffa871" d="M 326.402344 533.746094 L 223.613281 533.746094 C 214.871094 533.746094 214.871094 520.460938 223.613281 520.460938 L 326.402344 520.460938 C 335.144531 520.460938 335.144531 533.746094 326.402344 533.746094 Z M 326.402344 533.746094 " fill-opacity="1" fill-rule="evenodd"/><path fill="#ffa871" d="M 544.246094 394.21875 L 486.417969 394.21875 C 477.671875 394.21875 477.671875 380.933594 486.417969 380.933594 L 544.246094 380.933594 C 552.988281 380.933594 552.988281 394.21875 544.246094 394.21875 Z M 544.246094 394.21875 " fill-opacity="1" fill-rule="evenodd"/><path fill="#ffa871" d="M 544.246094 491.015625 L 441.457031 491.015625 C 432.714844 491.015625 432.71875 477.730469 441.457031 477.730469 L 544.246094 477.730469 C 552.988281 477.730469 552.988281 491.015625 544.246094 491.015625 Z M 544.246094 491.015625 " fill-opacity="1" fill-rule="evenodd"/><path fill="#c2c2c2" d="M 386.140625 478.085938 L 381.699219 478.085938 C 362.308594 478.085938 346.535156 462.308594 346.535156 442.90625 C 346.535156 437.226562 345.121094 428.828125 352.101562 428.828125 L 415.742188 428.828125 C 422.726562 428.828125 421.3125 437.226562 421.3125 442.90625 C 421.3125 462.308594 405.535156 478.085938 386.140625 478.085938 Z M 386.140625 478.085938 " fill-opacity="1" fill-rule="evenodd"/><g clip-path="url(#a1c51912fd)"><path fill="#ffcc00" d="M 420.554688 439.964844 L 347.289062 439.964844 C 327.898438 439.964844 312.121094 424.179688 312.121094 404.78125 C 312.121094 283.796875 258.101562 310.808594 258.101562 226.402344 C 258.101562 157.011719 314.546875 100.554688 383.925781 100.554688 C 453.304688 100.554688 509.75 157.011719 509.75 226.402344 C 509.75 310.808594 455.738281 283.789062 455.730469 404.78125 C 455.726562 424.179688 439.945312 439.964844 420.558594 439.964844 Z M 420.554688 439.964844 " fill-opacity="1" fill-rule="evenodd"/></g><path fill="#a0a0a0" d="M 420.554688 439.964844 L 347.289062 439.964844 C 327.898438 439.964844 312.121094 424.179688 312.121094 404.78125 C 312.121094 403.417969 312.109375 402.09375 312.09375 400.765625 L 455.757812 400.765625 C 455.742188 402.09375 455.726562 403.417969 455.726562 404.78125 C 455.722656 424.179688 439.941406 439.964844 420.554688 439.964844 Z M 420.554688 439.964844 " fill-opacity="1" fill-rule="evenodd"/><path fill="#c2c2c2" d="M 312.160156 406.339844 C 311.464844 390.785156 312.007812 385.230469 310.414062 370.878906 L 457.441406 370.878906 C 455.863281 385.097656 456.355469 390.742188 455.691406 406.339844 Z M 312.160156 406.339844 " fill-opacity="1" fill-rule="evenodd"/><path fill="#4a5254" d="M 396.902344 315.164062 C 359.414062 315.164062 359.378906 318.261719 359.378906 290.039062 C 358.09375 289.550781 356.816406 289.019531 355.558594 288.449219 C 335.628906 308.382812 337.550781 305.984375 311.253906 279.683594 C 301.382812 269.8125 314.300781 260.265625 320.835938 253.730469 C 320.269531 252.46875 319.738281 251.195312 319.25 249.90625 C 291.035156 249.90625 294.128906 249.871094 294.128906 212.375 C 294.128906 198.417969 310.011719 200.804688 319.25 200.804688 C 319.738281 199.515625 320.269531 198.234375 320.835938 196.980469 C 300.886719 177.027344 303.082031 179.222656 329.609375 152.675781 C 339.453125 142.820312 349.410156 156.121094 355.558594 162.269531 C 356.816406 161.699219 358.089844 161.167969 359.378906 160.679688 C 359.378906 132.460938 359.414062 135.554688 396.910156 135.550781 C 410.863281 135.550781 408.480469 151.4375 408.480469 160.675781 C 409.761719 161.164062 411.035156 161.699219 412.296875 162.265625 C 432.230469 142.316406 430.304688 144.746094 456.601562 171.03125 C 466.464844 180.890625 453.546875 190.4375 447.007812 196.980469 C 447.574219 198.238281 448.101562 199.515625 448.597656 200.804688 C 476.824219 200.804688 473.726562 200.84375 473.726562 238.335938 C 473.726562 252.289062 457.835938 249.902344 448.601562 249.902344 C 448.113281 251.1875 447.582031 252.46875 447.011719 253.726562 C 466.925781 273.644531 464.820312 271.46875 438.242188 298.035156 C 428.382812 307.890625 418.429688 294.589844 412.296875 288.449219 C 411.039062 289.015625 409.761719 289.550781 408.476562 290.039062 C 408.476562 299.28125 410.855469 315.167969 396.902344 315.167969 Z M 396.902344 315.164062 " fill-opacity="1" fill-rule="evenodd"/><path fill="#d6e3ff" d="M 383.925781 272.5 C 357.929688 272.5 336.785156 251.351562 336.785156 225.351562 C 336.785156 199.351562 357.929688 178.203125 383.925781 178.203125 C 409.921875 178.203125 431.070312 199.351562 431.070312 225.351562 C 431.070312 251.355469 409.917969 272.5 383.925781 272.5 Z M 383.925781 272.5 " fill-opacity="1" fill-rule="evenodd"/></svg>