<svg xmlns="http://www.w3.org/2000/svg" xmlns:xlink="http://www.w3.org/1999/xlink" width="1024" zoomAndPan="magnify" viewBox="0 0 768 767.999994" height="1024" preserveAspectRatio="xMidYMid meet" version="1.0"><defs><clipPath id="f6a65f8e7c"><path d="M 35.925781 119 L 731.925781 119 L 731.925781 651.371094 L 35.925781 651.371094 Z M 35.925781 119 " clip-rule="nonzero"/></clipPath></defs><path fill="#2d3f4e" d="M 383.761719 602.203125 C 383.761719 602.445312 383.753906 602.699219 383.746094 602.945312 C 383.730469 603.453125 383.695312 603.957031 383.644531 604.453125 C 383.695312 603.949219 383.730469 603.453125 383.746094 602.945312 C 383.753906 602.699219 383.761719 602.445312 383.761719 602.203125 " fill-opacity="1" fill-rule="nonzero"/><g clip-path="url(#f6a65f8e7c)"><path fill="#3aaded" d="M 597.382812 447.804688 C 608.171875 447.804688 617.027344 438.957031 617.027344 428.15625 C 617.027344 417.363281 608.171875 408.507812 597.382812 408.507812 C 586.582031 408.507812 577.734375 417.363281 577.734375 428.15625 C 577.734375 438.957031 586.582031 447.804688 597.382812 447.804688 Z M 597.382812 453.976562 C 611.585938 453.976562 623.195312 442.367188 623.195312 428.15625 C 623.195312 413.949219 611.585938 402.339844 597.382812 402.339844 C 583.175781 402.339844 571.648438 413.949219 571.648438 428.15625 C 571.648438 442.367188 583.175781 453.976562 597.382812 453.976562 Z M 552.730469 494.167969 C 563.53125 494.167969 572.296875 485.398438 572.296875 474.519531 C 572.296875 463.722656 563.53125 454.953125 552.730469 454.953125 C 541.941406 454.953125 533.085938 463.722656 533.085938 474.519531 C 533.085938 485.398438 541.941406 494.167969 552.730469 494.167969 Z M 552.730469 500.335938 C 566.945312 500.335938 578.464844 488.726562 578.464844 474.519531 C 578.464844 460.394531 566.945312 448.78125 552.730469 448.78125 C 538.527344 448.78125 526.917969 460.394531 526.917969 474.519531 C 526.917969 488.726562 538.527344 500.335938 552.730469 500.335938 Z M 346.550781 507.890625 C 357.351562 507.890625 366.117188 499.117188 366.117188 488.320312 C 366.117188 477.519531 357.351562 468.671875 346.550781 468.671875 C 335.757812 468.671875 326.90625 477.519531 326.90625 488.320312 C 326.90625 499.117188 335.757812 507.890625 346.550781 507.890625 Z M 346.550781 514.058594 C 360.757812 514.058594 372.285156 502.53125 372.285156 488.320312 C 372.285156 474.109375 360.757812 462.503906 346.550781 462.503906 C 332.347656 462.503906 320.738281 474.109375 320.738281 488.320312 C 320.738281 502.53125 332.347656 514.058594 346.550781 514.058594 Z M 257.179688 473.542969 C 267.976562 473.542969 276.824219 464.777344 276.824219 453.894531 C 276.824219 443.101562 267.976562 434.328125 257.179688 434.328125 C 246.382812 434.328125 237.539062 443.101562 237.539062 453.894531 C 237.539062 464.777344 246.382812 473.542969 257.179688 473.542969 Z M 257.179688 479.714844 C 271.386719 479.714844 282.992188 468.101562 282.992188 453.894531 C 282.992188 439.769531 271.386719 428.15625 257.179688 428.15625 C 242.976562 428.15625 231.449219 439.769531 231.449219 453.894531 C 231.449219 468.101562 242.976562 479.714844 257.179688 479.714844 Z M 178.117188 449.507812 C 188.996094 449.507812 197.761719 440.660156 197.761719 429.867188 C 197.761719 419.066406 188.996094 410.21875 178.117188 410.21875 C 167.320312 410.21875 158.554688 419.066406 158.554688 429.867188 C 158.554688 440.660156 167.320312 449.507812 178.117188 449.507812 Z M 178.117188 455.679688 C 192.320312 455.679688 203.929688 444.074219 203.929688 429.867188 C 203.929688 415.652344 192.320312 404.128906 178.117188 404.128906 C 163.992188 404.128906 152.386719 415.652344 152.386719 429.867188 C 152.386719 444.074219 163.992188 455.679688 178.117188 455.679688 Z M 324.230469 380.742188 C 335.027344 380.742188 343.792969 371.972656 343.792969 361.09375 C 343.792969 350.300781 335.027344 341.527344 324.230469 341.527344 C 313.351562 341.527344 304.585938 350.300781 304.585938 361.09375 C 304.585938 371.972656 313.351562 380.742188 324.230469 380.742188 Z M 324.230469 386.914062 C 338.433594 386.914062 349.960938 375.304688 349.960938 361.09375 C 349.960938 346.96875 338.433594 335.355469 324.230469 335.355469 C 310.023438 335.355469 298.417969 346.96875 298.417969 361.09375 C 298.417969 375.304688 310.023438 386.914062 324.230469 386.914062 Z M 471.96875 418.574219 C 482.757812 418.574219 491.613281 409.726562 491.613281 398.933594 C 491.613281 388.128906 482.757812 379.285156 471.96875 379.285156 C 461.164062 379.285156 452.320312 388.128906 452.320312 398.933594 C 452.320312 409.726562 461.164062 418.574219 471.96875 418.574219 Z M 471.96875 424.742188 C 486.171875 424.742188 497.78125 413.140625 497.78125 398.933594 C 497.78125 384.71875 486.171875 373.195312 471.96875 373.195312 C 457.761719 373.195312 446.152344 384.71875 446.152344 398.933594 C 446.152344 413.140625 457.761719 424.742188 471.96875 424.742188 Z M 599.066406 321.539062 C 614.140625 321.539062 626.492188 309.1875 626.492188 294.117188 C 626.492188 279.039062 614.140625 266.683594 599.066406 266.683594 C 583.992188 266.683594 571.753906 279.039062 571.753906 294.117188 C 571.753906 309.1875 583.992188 321.539062 599.066406 321.539062 Z M 722.652344 444.453125 C 721.785156 435.449219 716.5625 421.382812 713.625 414.492188 C 712.3125 411.28125 712.335938 409.847656 712.695312 407.542969 C 712.789062 406.914062 712.910156 406.121094 712.976562 404.957031 C 713.019531 404.292969 713.027344 403.667969 713.042969 403.03125 L 555.214844 476.503906 L 544.460938 526.757812 C 546.457031 527.902344 548.554688 529.933594 551.007812 532.320312 C 552.835938 534.113281 554.730469 535.953125 556.167969 536.996094 C 567.597656 545.34375 571.4375 548.148438 584.195312 553.238281 C 585.011719 553.542969 585.636719 553.914062 586.097656 554.191406 C 586.527344 554.441406 586.761719 554.585938 587.332031 554.761719 L 598.992188 558.144531 C 612.1875 561.199219 626.605469 561.394531 639.382812 558.644531 L 639.910156 558.53125 C 644.769531 557.542969 648.613281 556.769531 653.050781 555.144531 C 654.027344 554.761719 655.089844 554.40625 656.136719 554.042969 C 657.199219 553.675781 658.253906 553.324219 659.273438 552.914062 L 659.914062 552.675781 C 660.917969 552.304688 661.371094 552.144531 662.304688 551.707031 C 668.320312 549.128906 674.421875 545.703125 679.609375 542.003906 L 680.777344 541.152344 C 691.898438 533.003906 705.996094 519.101562 712.246094 504.5 C 712.867188 503.023438 713.613281 501.535156 714.367188 500.03125 C 715.375 498.03125 716.328125 496.144531 717.003906 494.160156 C 719.4375 486.679688 721.109375 479.832031 722.109375 473.261719 C 723.507812 463.625 723.664062 455.277344 722.652344 444.453125 Z M 549.394531 476.539062 L 375.613281 428.148438 L 350.535156 486.261719 L 538.632812 526.507812 C 538.660156 526.492188 538.683594 526.472656 538.714844 526.460938 Z M 535.488281 531.644531 L 348.917969 491.738281 L 339.367188 556.546875 C 341.800781 558.222656 344.140625 561.347656 346.96875 565.378906 C 347.609375 566.285156 348.167969 567.097656 348.613281 567.664062 C 353.933594 574.476562 362.101562 581.839844 369.933594 586.878906 L 383.652344 594.816406 C 391.722656 599.535156 402.894531 602.964844 416.875 605.035156 C 436.847656 608.082031 459.234375 604.46875 479.917969 594.894531 C 488.71875 590.855469 498.003906 584.5625 506.078125 577.15625 C 511.234375 572.472656 515.339844 567.867188 519.394531 562.195312 C 524.019531 555.902344 527.460938 550.695312 530.449219 544.125 C 530.847656 543.238281 531.167969 542.667969 531.46875 542.148438 C 531.667969 541.789062 531.851562 541.472656 532.066406 540.917969 C 532.179688 540.644531 532.402344 540 532.714844 539.128906 C 533.902344 535.804688 534.78125 533.402344 535.488281 531.644531 Z M 343.410156 490.152344 L 254.457031 455.894531 L 251.183594 403.058594 L 180.910156 431.792969 L 175.957031 610.28125 L 204.027344 568.101562 L 332.746094 556.800781 C 333.046875 556.546875 333.367188 556.3125 333.691406 556.078125 Z M 328.328125 562.898438 L 207.242188 573.519531 L 177.191406 618.683594 C 199.203125 640.695312 221.273438 648.128906 241.089844 640.132812 C 259.535156 632.683594 271.835938 612.765625 271.875 602.863281 L 271.878906 601.539062 L 272.667969 600.46875 C 275.199219 597.035156 276.386719 594.988281 277.09375 593.773438 C 278.910156 590.640625 280.003906 589.914062 283.609375 589.414062 C 284.890625 589.242188 286.828125 588.976562 290.105469 588.210938 C 299.113281 586.078125 307.425781 582.226562 314.128906 577.089844 C 314.691406 576.648438 315.203125 576.277344 315.675781 575.9375 C 316.289062 575.488281 316.828125 575.109375 317.414062 574.566406 C 322.039062 570.332031 325.460938 566.652344 328.328125 562.898438 Z M 175.195312 432.800781 L 73.289062 436.09375 C 72.417969 437.40625 71.410156 438.46875 70.261719 439.644531 C 67.414062 442.570312 63.105469 446.988281 57.125 460.050781 C 52.949219 469.296875 51.050781 484.636719 52.808594 494.945312 C 53.726562 500.171875 54.90625 503.980469 56.398438 508.804688 L 56.824219 510.179688 C 57.847656 513.445312 61.046875 519.144531 63.34375 522.3125 L 75.570312 536.214844 C 76.984375 537.492188 78.214844 538.363281 79.308594 539.144531 C 81.828125 540.929688 84.683594 542.957031 84.683594 547.753906 C 84.429688 562.101562 87.773438 575.363281 94.101562 585.171875 L 102.839844 596.886719 C 107.5 602 116.683594 609.199219 123.570312 612.035156 C 134.878906 616.601562 151.941406 620.261719 162.644531 617.464844 L 163.984375 617.078125 C 165.832031 616.542969 167.859375 615.984375 170.113281 615.882812 Z M 67.054688 424.105469 C 67.347656 424.304688 67.824219 424.539062 68.332031 424.789062 C 69.582031 425.429688 71.089844 426.210938 72.332031 427.339844 L 196.5 305.964844 L 76.398438 332.855469 L 76.125 333.214844 C 75.308594 334.269531 74.488281 334.804688 73.890625 335.199219 C 73.730469 335.292969 73.554688 335.414062 73.347656 335.5625 L 72.9375 335.820312 C 72.453125 336.089844 72.097656 336.273438 71.796875 336.425781 C 71.273438 336.695312 71.191406 336.738281 70.605469 337.214844 C 69.40625 338.1875 68.375 339.167969 67.539062 340.125 L 67.144531 340.582031 L 66.636719 340.90625 C 52.523438 349.789062 44.097656 365.054688 44.097656 381.714844 C 44.097656 395.988281 50.316406 409.417969 61.160156 418.558594 L 61.679688 419.085938 C 63.265625 421.011719 65.125 422.75 67.054688 424.105469 Z M 76.792969 326.949219 L 202.789062 298.742188 L 202.636719 181.1875 C 198.425781 180.871094 194.246094 182.265625 191.035156 185.105469 L 189.605469 186.101562 L 188.722656 186.246094 C 171.6875 188.890625 157.257812 200.6875 151.066406 217.039062 L 150.710938 217.984375 L 149.949219 218.652344 C 145.203125 222.816406 141.179688 228.089844 137.976562 234.34375 C 137.664062 234.960938 137.390625 235.488281 137.195312 236.023438 L 136.648438 237.484375 L 135.261719 238.203125 C 123.167969 244.492188 111.636719 253.921875 101.914062 265.472656 C 85.589844 284.875 76.371094 307.570312 76.792969 326.949219 Z M 77.449219 430.277344 L 177.515625 427.039062 L 252.554688 396.359375 L 318.085938 361.164062 L 206.167969 304.472656 Z M 314.695312 369.441406 L 256.71875 400.578125 L 259.527344 445.796875 Z M 261.644531 452.570312 L 345.027344 484.6875 L 370.710938 425.167969 L 324.316406 365.820312 Z M 317.601562 259.152344 C 316.289062 260.519531 315.132812 262.035156 314.148438 263.664062 L 208.324219 183.179688 L 208.472656 297.601562 L 310.523438 278.765625 C 310.664062 280.6875 310.996094 282.5625 311.539062 284.347656 L 214.421875 302.277344 L 321.976562 356.765625 L 329.8125 301.871094 C 331.621094 302.339844 333.5 302.621094 335.433594 302.679688 L 327.210938 360.296875 L 375.074219 421.527344 L 466.152344 397.527344 L 353.367188 296.117188 C 354.777344 294.84375 356.050781 293.433594 357.15625 291.886719 L 470.585938 393.863281 L 499.394531 302.210938 C 501.113281 302.972656 502.921875 303.558594 504.8125 303.929688 L 477.550781 390.644531 L 577.542969 308.191406 C 578.585938 309.789062 579.792969 311.261719 581.148438 312.585938 L 478.210938 397.46875 L 595.484375 424.804688 L 647.328125 265.023438 L 621.921875 282.148438 C 621.039062 280.460938 619.96875 278.882812 618.742188 277.441406 L 648.472656 257.398438 C 647.847656 235.378906 628.695312 210.109375 600.511719 194.292969 C 581.816406 183.804688 561.488281 178.765625 543.945312 180.101562 L 589.9375 270.007812 C 588.15625 270.691406 586.460938 271.554688 584.886719 272.601562 L 539.6875 184.257812 L 519.546875 254.804688 C 517.8125 254.089844 515.976562 253.578125 514.082031 253.257812 L 535.398438 178.601562 L 535.199219 178.132812 C 531.636719 169.703125 525.726562 162.445312 518.109375 157.144531 C 504.367188 147.683594 486.625 146.0625 471.304688 152.699219 L 504.484375 253.429688 C 502.605469 253.820312 500.808594 254.441406 499.097656 255.226562 L 466.140625 155.191406 L 356.582031 261.183594 C 355.417969 259.671875 354.109375 258.289062 352.648438 257.078125 L 462.660156 150.648438 C 460 147.570312 457.011719 144.875 453.710938 142.648438 C 438.445312 132.054688 418.867188 131.113281 402.582031 140.152344 L 401.347656 140.84375 L 398.316406 140.335938 L 397.445312 139.566406 C 396.328125 138.582031 395.15625 137.660156 393.527344 136.476562 C 376.878906 125.046875 354.546875 125.230469 338.03125 136.984375 L 337.230469 137.558594 L 336.253906 137.699219 C 334.417969 137.964844 332.859375 138.269531 331.339844 138.664062 C 329.472656 139.140625 328.214844 139.488281 327.285156 139.757812 L 336.882812 251.199219 C 336.667969 251.191406 336.460938 251.160156 336.246094 251.160156 C 334.527344 251.160156 332.84375 251.339844 331.21875 251.65625 L 321.601562 139.964844 C 305.242188 135.277344 285.625 135.542969 266.117188 140.851562 C 241.609375 147.519531 220.953125 161.128906 210.25 177.507812 Z M 591.863281 429.792969 L 473.890625 402.292969 L 473.347656 403.996094 L 471.210938 402.070312 L 384.855469 424.828125 L 551.859375 471.328125 Z M 565.351562 465.507812 L 688.65625 408.105469 L 598.859375 430.714844 Z M 654.09375 262.601562 L 601.667969 424.152344 L 713.453125 396.011719 C 721.761719 374.957031 714.632812 351.398438 695.976562 338.539062 C 694.386719 337.363281 692.699219 336.335938 690.566406 335.226562 L 689.867188 334.863281 L 688.804688 333.601562 C 688.589844 333.332031 688.371094 333.058594 688.105469 332.789062 L 686.175781 330.851562 L 687.238281 328.335938 C 696.132812 307.34375 688.953125 282.714844 670.160156 269.769531 C 665.230469 266.324219 659.816406 263.960938 654.09375 262.601562 Z M 730.136719 474.453125 C 729.066406 481.496094 727.292969 488.769531 724.707031 496.722656 C 723.828125 499.296875 722.703125 501.527344 721.613281 503.691406 C 720.941406 505.019531 720.273438 506.328125 719.71875 507.667969 C 713.859375 521.375 701.097656 536.324219 685.578125 547.699219 L 684.359375 548.585938 C 678.675781 552.644531 672.039062 556.367188 665.621094 559.117188 C 664.550781 559.617188 663.984375 559.828125 662.707031 560.300781 L 662.179688 560.496094 C 661.144531 560.90625 659.964844 561.3125 658.769531 561.722656 C 657.816406 562.050781 656.847656 562.382812 655.90625 562.75 C 650.832031 564.605469 646.519531 565.476562 641.523438 566.496094 L 641.046875 566.585938 C 627.171875 569.578125 611.496094 569.371094 596.949219 565.996094 L 584.96875 562.53125 C 583.40625 562.035156 582.566406 561.535156 581.949219 561.171875 C 581.75 561.042969 581.558594 560.917969 581.265625 560.804688 C 567.476562 555.304688 562.773438 551.871094 551.394531 543.558594 C 549.492188 542.183594 547.378906 540.125 545.335938 538.132812 C 544.546875 537.367188 543.566406 536.410156 542.667969 535.574219 C 541.792969 537.835938 540.800781 540.617188 540.363281 541.855469 C 540 542.867188 539.734375 543.621094 539.621094 543.902344 C 539.234375 544.890625 538.898438 545.484375 538.527344 546.144531 C 538.332031 546.496094 538.117188 546.867188 537.851562 547.472656 C 534.558594 554.695312 530.871094 560.28125 525.972656 566.957031 C 521.648438 573 517.0625 578.160156 511.546875 583.15625 C 502.886719 591.101562 492.855469 597.894531 483.316406 602.269531 C 461.226562 612.507812 437.195312 616.34375 415.671875 613.0625 C 400.679688 610.847656 388.523438 607.070312 379.574219 601.835938 L 365.703125 593.808594 C 356.992188 588.210938 348.058594 580.144531 342.21875 572.65625 C 341.714844 572.007812 341.0625 571.089844 340.328125 570.050781 C 339.523438 568.902344 338.050781 566.804688 336.734375 565.207031 L 336.382812 565.699219 C 332.902344 570.621094 328.742188 575.203125 322.914062 580.542969 C 322.035156 581.355469 321.21875 581.945312 320.4375 582.515625 C 320.03125 582.808594 319.589844 583.125 319.089844 583.511719 C 311.464844 589.359375 302.09375 593.710938 291.964844 596.113281 C 288.308594 596.96875 286.050781 597.28125 284.707031 597.457031 C 284.5625 597.480469 284.429688 597.496094 284.304688 597.519531 C 284.246094 597.613281 284.183594 597.726562 284.117188 597.84375 C 283.398438 599.085938 282.238281 601.085938 279.933594 604.28125 C 278.960938 617.183594 265.488281 639.03125 244.132812 647.652344 C 238.746094 649.832031 232.3125 651.410156 224.992188 651.410156 C 210.585938 651.410156 192.726562 645.261719 172.605469 625.574219 L 169.722656 629.902344 L 169.886719 624.097656 C 168.765625 624.234375 167.597656 624.488281 166.246094 624.878906 C 165.742188 625.027344 165.234375 625.171875 164.726562 625.308594 C 152.148438 628.601562 133.457031 624.789062 120.503906 619.554688 C 112.375 616.210938 102.019531 608.105469 96.6875 602.183594 L 96.449219 601.898438 L 87.4375 589.792969 C 80.089844 578.425781 76.285156 563.542969 76.570312 547.679688 C 76.570312 547.394531 76.527344 547.277344 76.527344 547.277344 C 76.367188 547.007812 75.351562 546.289062 74.609375 545.761719 C 73.347656 544.867188 71.777344 543.753906 69.925781 542.050781 L 69.625 541.746094 L 56.898438 527.25 C 54.175781 523.539062 50.414062 516.875 49.070312 512.597656 L 48.644531 511.207031 C 47.128906 506.316406 45.820312 502.082031 44.808594 496.332031 C 42.78125 484.4375 44.898438 467.394531 49.738281 456.691406 C 56.308594 442.328125 61.207031 437.300781 64.453125 433.976562 C 64.953125 433.464844 65.390625 433.011719 65.753906 432.601562 C 65.367188 432.386719 64.953125 432.179688 64.65625 432.03125 C 63.804688 431.601562 63.019531 431.183594 62.433594 430.78125 C 59.925781 429.019531 57.664062 426.921875 55.652344 424.527344 C 43.144531 413.84375 35.984375 398.265625 35.984375 381.714844 C 35.984375 362.445312 45.628906 344.78125 61.816406 334.351562 C 62.871094 333.191406 64.101562 332.03125 65.484375 330.910156 C 66.65625 329.957031 67.257812 329.632812 68.113281 329.191406 C 68.285156 329.101562 68.484375 328.996094 68.726562 328.871094 C 67.6875 307.15625 77.664062 281.683594 95.703125 260.246094 C 105.765625 248.292969 117.683594 238.441406 130.242188 231.675781 C 130.390625 231.363281 130.554688 231.027344 130.734375 230.671875 C 134.253906 223.800781 138.65625 217.945312 143.839844 213.222656 C 151.121094 194.980469 167.277344 181.753906 186.394531 178.402344 C 191.199219 174.484375 197.273438 172.601562 203.414062 173.085938 C 215.1875 155.074219 237.601562 140.195312 263.988281 133.015625 C 285.019531 127.296875 306.335938 127.023438 324.167969 132.210938 C 325.171875 131.914062 326.710938 131.46875 329.316406 130.804688 C 330.8125 130.410156 332.398438 130.085938 334.128906 129.808594 C 353.332031 116.644531 378.949219 116.625 398.203125 129.847656 C 399.007812 130.429688 399.921875 131.097656 400.886719 131.871094 C 419.421875 122.605469 441.203125 124.085938 458.292969 135.953125 C 462.027344 138.464844 465.472656 141.496094 468.527344 144.976562 L 468.703125 144.8125 L 468.75 144.945312 C 486.484375 137.542969 506.871094 139.550781 522.734375 150.46875 C 530.765625 156.070312 537.167969 163.519531 541.398438 172.15625 C 560.953125 170.164062 583.75 175.582031 604.480469 187.21875 C 633.519531 203.507812 653.148438 228.472656 656.179688 252.210938 L 657.824219 251.101562 L 656.628906 254.796875 C 663.101562 256.421875 669.203125 259.207031 674.785156 263.09375 C 695.917969 277.65625 704.472656 304.902344 695.769531 328.804688 C 697.640625 329.835938 699.234375 330.851562 700.695312 331.933594 C 722.289062 346.816406 730.65625 374.183594 721.136719 398.695312 C 721.246094 400.925781 721.234375 403.148438 721.078125 405.453125 C 720.996094 406.933594 720.839844 407.957031 720.714844 408.773438 C 720.535156 409.941406 720.535156 409.941406 721.113281 411.355469 C 724.972656 420.394531 729.828125 434.328125 730.734375 443.679688 C 731.808594 455.203125 731.640625 464.117188 730.136719 474.453125 Z M 534.492188 285.773438 L 573.433594 292.539062 C 573.550781 290.605469 573.863281 288.734375 574.382812 286.9375 L 535.441406 280.179688 C 535.332031 282.109375 535.011719 283.984375 534.492188 285.773438 Z M 361.773438 280 L 484.113281 281.195312 C 484.023438 280.339844 483.976562 279.476562 483.976562 278.605469 C 483.976562 277.558594 484.058594 276.527344 484.1875 275.515625 L 361.84375 274.3125 C 361.929688 275.164062 361.976562 276.027344 361.976562 276.898438 C 361.976562 277.949219 361.894531 278.980469 361.773438 280 Z M 509.808594 305.789062 C 524.753906 305.789062 536.886719 293.648438 536.886719 278.59375 C 536.886719 263.644531 524.753906 251.507812 509.808594 251.507812 C 494.757812 251.507812 482.617188 263.644531 482.617188 278.59375 C 482.617188 293.648438 494.757812 305.789062 509.808594 305.789062 Z M 205.632812 320.582031 C 216.433594 320.582031 225.277344 311.808594 225.277344 301.015625 C 225.277344 290.214844 216.433594 281.367188 205.632812 281.367188 C 194.839844 281.367188 185.992188 290.214844 185.992188 301.015625 C 185.992188 311.808594 194.839844 320.582031 205.632812 320.582031 Z M 205.632812 326.753906 C 219.839844 326.753906 231.449219 315.222656 231.449219 301.015625 C 231.449219 286.808594 219.839844 275.195312 205.632812 275.195312 C 191.429688 275.195312 179.902344 286.808594 179.902344 301.015625 C 179.902344 315.222656 191.429688 326.753906 205.632812 326.753906 Z M 336.261719 303.707031 C 321.519531 303.707031 309.441406 291.625 309.441406 276.886719 C 309.441406 262.140625 321.519531 250.171875 336.261719 250.171875 C 350.996094 250.171875 362.964844 262.140625 362.964844 276.886719 C 362.964844 291.625 350.996094 303.707031 336.261719 303.707031 " fill-opacity="1" fill-rule="nonzero"/></g></svg>